Recursive-Mono Casual Black.ufo
<glyph name="equal" format="2">
  <advance width="600.0"/>
  <unicode hex="003D"/>
  <outline>
    <contour>
      <point x="46.0" y="533.3333333333333" type="line"/>
      <point x="46.0" y="526.0"/>
      <point x="46.0" y="519.3333333333333"/>
      <point x="46.0" y="511.0" type="curve" smooth="yes"/>
      <point x="46.0" y="374.33333333333337"/>
      <point x="71.0" y="342.0"/>
      <point x="175.0" y="342.0" type="curve"/>
      <point x="551.0000000000001" y="342.0" type="line"/>
      <point x="557.6666666666667" y="373.0"/>
      <point x="561.3333333333334" y="401.33333333333337"/>
      <point x="561.3333333333334" y="427.0" type="curve" smooth="yes"/>
      <point x="561.3333333333334" y="509.3333333333333"/>
      <point x="536.3333333333334" y="533.3333333333333"/>
      <point x="451.0" y="533.3333333333333" type="curve" smooth="yes"/>
    </contour>
    <contour>
      <point x="55.666666666666664" y="258.0" type="line"/>
      <point x="49.666666666666664" y="227.00000000000003"/>
      <point x="46.0" y="196.0"/>
      <point x="46.0" y="173.0" type="curve" smooth="yes"/>
      <point x="46.0" y="90.0"/>
      <point x="70.33333333333334" y="66.66666666666669"/>
      <point x="156.33333333333331" y="66.66666666666669" type="curve"/>
      <point x="561.3333333333334" y="66.66666666666669" type="line"/>
      <point x="561.3333333333334" y="74.0"/>
      <point x="561.3333333333334" y="80.66666666666669"/>
      <point x="561.3333333333334" y="89.00000000000001" type="curve" smooth="yes"/>
      <point x="561.3333333333334" y="225.66666666666666"/>
      <point x="536.3333333333334" y="258.0"/>
      <point x="432.33333333333337" y="258.0" type="curve" smooth="yes"/>
    </contour>
  </outline>
</glyph>
<glyph name="H" format="2">
  <advance width="600.0"/>
  <unicode hex="0048"/>
  <anchor x="289.33333333333337" y="711.0" name="top"/>
  <anchor x="301.0" y="-0.6666666666666665" name="bottom"/>
  <outline>
    <contour>
      <point x="36.000000000000014" y="700.0" type="curve"/>
      <point x="44.33333333333335" y="663.6666666666667"/>
      <point x="48.33333333333335" y="621.3333333333335"/>
      <point x="48.33333333333335" y="570.0000000000001" type="curve" smooth="yes"/>
      <point x="48.33333333333335" y="410.3333333333333"/>
      <point x="48.33333333333335" y="250.33333333333337"/>
      <point x="48.33333333333335" y="117.33333333333334" type="curve" smooth="yes"/>
      <point x="48.33333333333335" y="24.666666666666664"/>
      <point x="82.66666666666666" y="-7.333333333333334"/>
      <point x="173.33333333333337" y="-7.333333333333334" type="curve" smooth="yes"/>
      <point x="201.33333333333334" y="-7.333333333333334"/>
      <point x="225.66666666666666" y="-5.0"/>
      <point x="250.33333333333331" y="4.440892098500626e-16" type="curve"/>
      <point x="250.33333333333331" y="199.33333333333334"/>
      <point x="250.33333333333331" y="399.0"/>
      <point x="250.33333333333331" y="598.3333333333333" type="curve" smooth="yes"/>
      <point x="250.33333333333331" y="671.9999999999999"/>
      <point x="214.3333333333333" y="709.3333333333334"/>
      <point x="123.00000000000001" y="709.3333333333334" type="curve" smooth="yes"/>
      <point x="92.00000000000001" y="709.3333333333334"/>
      <point x="64.33333333333333" y="706.3333333333333"/>
    </contour>
    <contour>
      <point x="11.666666666666671" y="419.99999999999994" type="line"/>
      <point x="11.666666666666671" y="393.0" type="line" smooth="yes"/>
      <point x="11.666666666666671" y="261.33333333333337"/>
      <point x="25.333333333333336" y="233.33333333333334"/>
      <point x="120.99999999999997" y="233.33333333333334" type="curve"/>
      <point x="401.0" y="233.33333333333334" type="line"/>
      <point x="400.99999999999994" y="415.0" type="line"/>
      <point x="347.3333333333333" y="391.3333333333333" type="line"/>
      <point x="320.33333333333337" y="412.3333333333333"/>
      <point x="291.66666666666663" y="419.99999999999994"/>
      <point x="244.66666666666669" y="419.99999999999994" type="curve"/>
    </contour>
    <contour>
      <point x="567.6666666666665" y="4.440892098500626e-16" type="curve"/>
      <point x="559.3333333333331" y="37.333333333333336"/>
      <point x="555.3333333333331" y="79.66666666666666"/>
      <point x="555.3333333333331" y="131.0" type="curve" smooth="yes"/>
      <point x="555.3333333333331" y="297.0"/>
      <point x="555.3333333333331" y="464.33333333333337"/>
      <point x="555.3333333333331" y="605.0" type="curve" smooth="yes"/>
      <point x="555.3333333333331" y="676.3333333333334"/>
      <point x="508.6666666666667" y="707.3333333333334"/>
      <point x="430.66666666666663" y="707.3333333333334" type="curve" smooth="yes"/>
      <point x="403.0" y="707.3333333333334"/>
      <point x="377.3333333333333" y="705.0"/>
      <point x="353.33333333333337" y="699.9999999999999" type="curve"/>
      <point x="353.33333333333337" y="500.58235622556674"/>
      <point x="353.33333333333337" y="304.66666666666663"/>
      <point x="353.33333333333337" y="107.66666666666667" type="curve" smooth="yes"/>
      <point x="353.33333333333337" y="30.0"/>
      <point x="397.0" y="-9.333333333333332"/>
      <point x="480.6666666666667" y="-9.333333333333332" type="curve" smooth="yes"/>
      <point x="511.66666666666663" y="-9.333333333333332"/>
      <point x="539.3333333333333" y="-6.333333333333332"/>
    </contour>
  </outline>
</glyph>
<glyph name="N" format="2">
  <advance width="600.0"/>
  <unicode hex="004E"/>
  <anchor x="296.0" y="711.3333333333333" name="top"/>
  <anchor x="295.33333333333337" y="-1.0" name="bottom"/>
  <outline>
    <contour>
      <point x="234.99999999999997" y="-2.220446049250313e-16" type="curve"/>
      <point x="234.99999999999997" y="22.66666666666667"/>
      <point x="234.99999999999997" y="44.33333333333334"/>
      <point x="234.99999999999997" y="66.33333333333334" type="curve"/>
      <point x="234.99999999999997" y="171.66666666666666"/>
      <point x="224.33333333333331" y="268.33333333333337"/>
      <point x="197.66666666666669" y="409.33333333333337" type="curve"/>
      <point x="180.00000000000003" y="394.00000000000006" type="line"/>
      <point x="227.33333333333337" y="394.00000000000006" type="line"/>
      <point x="202.66666666666669" y="408.33333333333337" type="line"/>
      <point x="263.66666666666663" y="212.66666666666669"/>
      <point x="333.58557733773335" y="74.73026614033334"/>
      <point x="386.00000000000006" y="29.66666666666667" type="curve" smooth="yes"/>
      <point x="416.66666666666674" y="2.3333333333333326"/>
      <point x="452.0" y="-7.333333333333334"/>
      <point x="503.66666666666663" y="-7.333333333333334" type="curve" smooth="yes"/>
      <point x="522.6666666666666" y="-7.333333333333334"/>
      <point x="542.6666666666667" y="-4.666666666666668"/>
      <point x="561.6666666666667" y="0.0" type="curve"/>
      <point x="556.6666666666667" y="23.000000000000004"/>
      <point x="555.0" y="47.66666666666667"/>
      <point x="555.0" y="71.33333333333334" type="curve"/>
      <point x="555.0" y="252.0"/>
      <point x="555.0" y="431.99999999999994"/>
      <point x="555.0" y="623.3333333333333" type="curve"/>
      <point x="555.0" y="679.6666666666667"/>
      <point x="519.0" y="709.3333333333334"/>
      <point x="442.66666666666674" y="709.3333333333334" type="curve"/>
      <point x="415.90980392160003" y="709.3333333333334"/>
      <point x="388.99999999999994" y="705.6666666666666"/>
      <point x="367.0" y="700.0" type="curve"/>
      <point x="367.0" y="671.9130434782667"/>
      <point x="367.0" y="625.6666666666665"/>
      <point x="367.0" y="588.6666666666665" type="curve"/>
      <point x="367.0" y="478.6666666666667"/>
      <point x="374.09099623470007" y="389.2318802514667"/>
      <point x="401.66666666666674" y="261.33333333333337" type="curve"/>
      <point x="423.66666666666674" y="274.3333333333333" type="line"/>
      <point x="375.6666666666667" y="274.3333333333333" type="line"/>
      <point x="402.6666666666667" y="255.66666666666669" type="line"/>
      <point x="333.4170002102" y="377.17064773940007"/>
      <point x="303.66326675773337" y="480.35166327716667"/>
      <point x="276.0" y="614.3333333333333" type="curve" smooth="yes"/>
      <point x="261.3333333333333" y="685.6666666666665"/>
      <point x="214.66666666666666" y="709.3333333333334"/>
      <point x="124.66666666666669" y="709.3333333333334" type="curve" smooth="yes"/>
      <point x="94.33333333333333" y="709.3333333333334"/>
      <point x="65.33333333333334" y="707.0"/>
      <point x="36.0" y="700.0" type="curve"/>
      <point x="44.33333333333334" y="662.6666666666666"/>
      <point x="48.33333333333334" y="621.3333333333333"/>
      <point x="48.33333333333334" y="570.0000000000001" type="curve"/>
      <point x="48.33333333333334" y="415.6148867314"/>
      <point x="48.33333333333334" y="260.0"/>
      <point x="48.33333333333334" y="105.66666666666667" type="curve"/>
      <point x="48.33333333333334" y="22.333333333333336"/>
      <point x="80.99999999999999" y="-6.333333333333334"/>
      <point x="171.33333333333334" y="-6.333333333333334" type="curve"/>
      <point x="195.33333333333334" y="-6.333333333333334"/>
      <point x="216.0" y="-4.0"/>
    </contour>
  </outline>
</glyph>
<glyph name="O" format="2">
  <advance width="600.0"/>
  <unicode hex="004F"/>
  <anchor x="300.0" y="712.0" name="top"/>
  <anchor x="300.0" y="-1.0" name="bottom"/>
  <anchor x="423.66666666666663" y="693.3333333333334" name="horn"/>
  <anchor x="301.0" y="770.0" name="hook"/>
  <anchor x="268.66666666666663" y="713.3333333333334" name="tildeviet"/>
  <anchor x="498.6666666666666" y="74.66666666666667" name="ogonek"/>
  <outline>
    <contour>
      <point x="297.6666666666667" y="720.0" type="curve" smooth="yes"/>
      <point x="129.33333333333337" y="720.0"/>
      <point x="30.00000000000001" y="583.3333333333331"/>
      <point x="30.00000000000001" y="354.0" type="curve" smooth="yes"/>
      <point x="30.00000000000001" y="335.3333333333333" type="line" smooth="yes"/>
      <point x="30.00000000000001" y="100.33333333333334"/>
      <point x="116.33333333333334" y="-20.0"/>
      <point x="304.66666666666663" y="-20.0" type="curve" smooth="yes"/>
      <point x="470.66666666666663" y="-20.0"/>
      <point x="570.0" y="117.33333333333331"/>
      <point x="570.0" y="346.0" type="curve" smooth="yes"/>
      <point x="570.0" y="364.66666666666674" type="line" smooth="yes"/>
      <point x="570.0" y="600.3333333333333"/>
      <point x="483.6666666666667" y="720.0"/>
    </contour>
    <contour>
      <point x="232.0" y="331.0" type="curve" smooth="yes"/>
      <point x="232.0" y="344.0" type="line" smooth="yes"/>
      <point x="232.0" y="468.0"/>
      <point x="257.33333333333337" y="530.3333333333334"/>
      <point x="308.00000000000006" y="530.3333333333334" type="curve" smooth="yes"/>
      <point x="322.66666666666663" y="530.3333333333334"/>
      <point x="333.0" y="529.6666666666667"/>
      <point x="346.3333333333333" y="525.6666666666667" type="curve"/>
      <point x="359.00000000000006" y="498.6666666666667"/>
      <point x="368.00000000000006" y="452.33333333333337"/>
      <point x="368.00000000000006" y="382.33333333333337" type="curve" smooth="yes"/>
      <point x="368.00000000000006" y="369.3333333333333" type="line" smooth="yes"/>
      <point x="368.00000000000006" y="236.0"/>
      <point x="342.66666666666663" y="169.66666666666663"/>
      <point x="292.0" y="169.66666666666663" type="curve" smooth="yes"/>
      <point x="278.6666666666666" y="169.66666666666663"/>
      <point x="268.6666666666667" y="170.0"/>
      <point x="256.3333333333333" y="173.33333333333331" type="curve" smooth="yes"/>
      <point x="241.00000000000003" y="202.66666666666663"/>
      <point x="232.0" y="253.33333333333331"/>
    </contour>
  </outline>
</glyph>
<glyph name="X" format="2">
  <advance width="600.0"/>
  <unicode hex="0058"/>
  <outline>
    <contour>
      <point x="521.6666666666667" y="-10.666666666666666" type="curve" smooth="yes"/>
      <point x="551.6666666666666" y="-10.666666666666666"/>
      <point x="576.6666666666667" y="-7.333333333333333"/>
      <point x="591.3333333333335" y="-1.333333333333333" type="curve"/>
      <point x="503.66666666666663" y="104.0"/>
      <point x="428.6666666666666" y="230.99999999999997"/>
      <point x="381.99999999999994" y="349.99999999999994" type="curve"/>
      <point x="329.0" y="406.6666666666667" type="line"/>
      <point x="292.0" y="499.33333333333337"/>
      <point x="268.66666666666663" y="560.9999999999999"/>
      <point x="245.99999999999997" y="626.3333333333334" type="curve" smooth="yes"/>
      <point x="224.33333333333331" y="690.6666666666667"/>
      <point x="178.33333333333337" y="709.3333333333334"/>
      <point x="84.33333333333334" y="709.3333333333334" type="curve" smooth="yes"/>
      <point x="59.33333333333333" y="709.3333333333334"/>
      <point x="32.489366708266665" y="707.5971644555334"/>
      <point x="10.333333333333337" y="702.0" type="curve"/>
      <point x="58.66666666666667" y="580.3333333333333"/>
      <point x="123.99637203493336" y="426.48148498753335"/>
      <point x="202.99999999999997" y="285.33333333333326" type="curve"/>
      <point x="243.99999999999997" y="233.66666666666663" type="line"/>
      <point x="279.6666666666667" y="156.66666666666669"/>
      <point x="316.0" y="89.33333333333334"/>
      <point x="346.66666666666674" y="45.666666666666664" type="curve" smooth="yes"/>
      <point x="376.3333333333333" y="4.333333333333333"/>
      <point x="423.3333333333334" y="-10.666666666666666"/>
    </contour>
    <contour>
      <point x="446.00000000000006" y="709.3333333333334" type="curve"/>
      <point x="421.66666666666663" y="709.3333333333334"/>
      <point x="399.3333333333333" y="707.3333333333334"/>
      <point x="378.00000000000006" y="702.6666666666667" type="curve"/>
      <point x="364.33333333333337" y="583.0000000000001"/>
      <point x="344.6666666666667" y="498.6666666666665"/>
      <point x="318.99999999999994" y="450.0" type="curve"/>
      <point x="282.66666666666663" y="450.0" type="line"/>
      <point x="365.66666666666663" y="263.6666666666667" type="line"/>
      <point x="472.6666666666667" y="375.6666666666667"/>
      <point x="526.6666666666666" y="473.33333333333337"/>
      <point x="555.6666666666666" y="593.6666666666667" type="curve"/>
      <point x="577.0" y="682.3333333333331"/>
      <point x="537.3333333333333" y="709.3333333333334"/>
    </contour>
    <contour>
      <point x="140.33333333333331" y="-9.333333333333334" type="curve" smooth="yes"/>
      <point x="160.33333333333334" y="-9.333333333333334"/>
      <point x="181.33333333333334" y="-7.666666666666666"/>
      <point x="200.00000000000003" y="-3.999999999999999" type="curve"/>
      <point x="212.1473091518" y="70.5791406822"/>
      <point x="234.2796605509333" y="134.46251552653334"/>
      <point x="260.99999999999994" y="182.33333333333334" type="curve"/>
      <point x="288.66666666666663" y="182.33333333333334" type="line"/>
      <point x="218.0" y="381.3333333333333" type="line"/>
      <point x="118.66666666666669" y="259.3333333333333"/>
      <point x="55.66666666666668" y="173.0"/>
      <point x="27.333333333333336" y="102.66666666666666" type="curve"/>
      <point x="-0.49999999999999645" y="34.666666666666664"/>
      <point x="54.800000000000004" y="-9.333333333333334"/>
    </contour>
  </outline>
</glyph>
<glyph name="Y" format="2">
  <advance width="600.0"/>
  <unicode hex="0059"/>
  <anchor x="298.0" y="711.3333333333334" name="top"/>
  <anchor x="300.6666666666667" y="-145.99999999999997" name="dot"/>
  <anchor x="300.0" y="770.0" name="hook"/>
  <anchor x="300.0" y="-1.0" name="bottom"/>
  <outline>
    <contour>
      <point x="416.0" y="0.0" type="curve"/>
      <point x="406.66666666666663" y="36.33333333333333"/>
      <point x="402.66666666666663" y="78.66666666666666"/>
      <point x="402.66666666666663" y="130.0" type="curve"/>
      <point x="402.66666666666663" y="192.66666666666666"/>
      <point x="402.66666666666663" y="254.99999999999997"/>
      <point x="402.66666666666663" y="317.66666666666663" type="curve"/>
      <point x="198.66666666666669" y="317.66666666666663" type="line"/>
      <point x="198.66666666666669" y="245.66666666666666"/>
      <point x="198.66666666666669" y="172.66666666666666"/>
      <point x="198.66666666666669" y="105.33333333333333" type="curve" smooth="yes"/>
      <point x="198.66666666666669" y="22.333333333333336"/>
      <point x="228.66666666666666" y="-9.333333333333334"/>
      <point x="328.0" y="-9.333333333333334" type="curve" smooth="yes"/>
      <point x="359.0" y="-9.333333333333334"/>
      <point x="386.6666666666667" y="-6.333333333333333"/>
    </contour>
    <contour>
      <point x="27.999999999999996" y="702.0" type="curve"/>
      <point x="50.00000000000001" y="468.33333333333337"/>
      <point x="96.66666666666669" y="311.6666666666667"/>
      <point x="178.0" y="230.33333333333334" type="curve"/>
      <point x="217.00000000000003" y="191.33333333333334"/>
      <point x="259.0" y="183.33333333333334"/>
      <point x="376.6666666666667" y="183.33333333333334" type="curve"/>
      <point x="468.0" y="260.99999999999994"/>
      <point x="547.6666666666667" y="438.6666666666667"/>
      <point x="565.0" y="618.6666666666667" type="curve"/>
      <point x="570.9980603200667" y="681.6458151075333"/>
      <point x="532.6666666666666" y="709.3333333333334"/>
      <point x="438.00000000000006" y="709.3333333333334" type="curve"/>
      <point x="416.72727272726667" y="709.3333333333334"/>
      <point x="395.0" y="707.3333333333334"/>
      <point x="374.0" y="702.0" type="curve"/>
      <point x="363.0" y="539.6666666666667"/>
      <point x="347.0" y="429.66666666666663"/>
      <point x="289.6666666666667" y="349.3333333333333" type="curve"/>
      <point x="333.33333333333337" y="369.33333333333337" type="line"/>
      <point x="264.0" y="369.33333333333337" type="line"/>
      <point x="308.3333333333333" y="349.6666666666667" type="line"/>
      <point x="272.0" y="410.6666666666667"/>
      <point x="244.66666666666669" y="512.6666666666666"/>
      <point x="234.33333333333331" y="616.6666666666666" type="curve"/>
      <point x="226.99999999999997" y="691.3333333333333"/>
      <point x="194.0" y="709.3333333333334"/>
      <point x="92.00000000000003" y="709.3333333333334" type="curve" smooth="yes"/>
      <point x="70.7272727272667" y="709.3333333333334"/>
      <point x="49.00000000000001" y="707.3333333333334"/>
    </contour>
  </outline>
</glyph>
<glyph name="a" format="2">
  <advance width="600.0"/>
  <unicode hex="0061"/>
  <anchor x="300.6666666666667" y="557.6666666666667" name="top"/>
  <anchor x="300.3333333333333" y="-1.0" name="bottom"/>
  <anchor x="517.6666666666667" y="0.6666666666666659" name="ogonek"/>
  <anchor x="299.6666666666667" y="584.0" name="hook"/>
  <outline>
    <contour>
      <point x="539.6666666666667" y="351.3333333333333" type="curve" smooth="yes"/>
      <point x="539.6666666666667" y="453.6666666666667"/>
      <point x="432.3333333333333" y="558.0"/>
      <point x="293.0" y="558.0" type="curve" smooth="yes"/>
      <point x="161.66666666666666" y="558.0"/>
      <point x="119.66666666666669" y="548.0"/>
      <point x="90.33333333333333" y="518.6666666666667" type="curve" smooth="yes"/>
      <point x="70.00000000000001" y="498.3333333333334"/>
      <point x="63.66666666666668" y="467.33333333333337"/>
      <point x="63.66666666666668" y="430.3333333333333" type="curve" smooth="yes"/>
      <point x="63.66666666666668" y="406.6666666666667"/>
      <point x="65.66666666666669" y="387.0"/>
      <point x="70.0" y="366.6666666666667" type="curve"/>
      <point x="76.0" y="366.6666666666667" type="line"/>
      <point x="131.33333333333334" y="384.0"/>
      <point x="182.66666666666669" y="389.6666666666667"/>
      <point x="241.66666666666669" y="389.6666666666667" type="curve" smooth="yes"/>
      <point x="287.0" y="389.6666666666667"/>
      <point x="326.0" y="385.00000000000006"/>
      <point x="362.3333333333333" y="372.0" type="curve" smooth="yes"/>
      <point x="351.66666666666663" y="337.6666666666667"/>
      <point x="344.99999999999994" y="305.0"/>
      <point x="343.66666666666663" y="276.6666666666667" type="curve" smooth="yes"/>
      <point x="343.66666666666663" y="233.33333333333334"/>
      <point x="343.66666666666663" y="191.66666666666666"/>
      <point x="343.66666666666663" y="148.33333333333334" type="curve" smooth="yes"/>
      <point x="343.66666666666663" y="66.66666666666666"/>
      <point x="413.6666666666667" y="-8.666666666666666"/>
      <point x="480.0" y="-8.666666666666666" type="curve" smooth="yes"/>
      <point x="507.9999999999999" y="-8.666666666666666"/>
      <point x="533.3333333333334" y="-0.6666666666666665"/>
      <point x="555.6666666666667" y="22.333333333333332" type="curve" smooth="yes"/>
      <point x="576.3333333333334" y="43.0"/>
      <point x="591.6666666666666" y="89.66666666666666"/>
      <point x="591.6666666666666" y="143.66666666666666" type="curve" smooth="yes"/>
      <point x="591.6666666666666" y="162.66666666666666"/>
      <point x="589.3333333333334" y="178.3333333333333"/>
      <point x="587.3333333333334" y="185.99999999999997" type="curve"/>
      <point x="581.3333333333334" y="185.99999999999997" type="line"/>
      <point x="572.3333333333334" y="177.99999999999997"/>
      <point x="559.6666666666666" y="172.66666666666666"/>
      <point x="548.6666666666667" y="172.66666666666666" type="curve"/>
      <point x="546.0" y="172.66666666666666"/>
      <point x="541.6666666666666" y="173.33333333333334"/>
      <point x="539.6666666666666" y="174.33333333333331" type="curve" smooth="yes"/>
      <point x="539.6666666666666" y="194.66666666666666"/>
      <point x="539.6666666666667" y="213.66666666666663"/>
      <point x="539.6666666666667" y="234.33333333333331" type="curve" smooth="yes"/>
      <point x="539.6666666666667" y="272.66666666666663"/>
      <point x="539.6666666666667" y="312.66666666666663"/>
    </contour>
    <contour>
      <point x="223.00000000000003" y="180.33333333333331" type="curve" smooth="yes"/>
      <point x="223.00000000000003" y="182.33333333333331" type="line" smooth="yes"/>
      <point x="223.00000000000003" y="195.66666666666666"/>
      <point x="224.33333333333331" y="207.33333333333331"/>
      <point x="227.66666666666669" y="220.0" type="curve" smooth="yes"/>
      <point x="242.66666666666666" y="223.33333333333334"/>
      <point x="259.0" y="225.0"/>
      <point x="276.6666666666667" y="225.0" type="curve" smooth="yes"/>
      <point x="315.6666666666667" y="225.0"/>
      <point x="364.3333333333333" y="219.33333333333334"/>
      <point x="407.6666666666667" y="205.0" type="curve"/>
      <point x="407.66666666666663" y="246.66666666666669"/>
      <point x="401.6666666666667" y="272.0"/>
      <point x="383.0" y="285.33333333333337" type="curve" smooth="yes"/>
      <point x="350.33333333333337" y="310.6666666666667"/>
      <point x="289.33333333333337" y="327.0"/>
      <point x="203.0" y="327.0" type="curve" smooth="yes"/>
      <point x="115.00000000000001" y="327.0"/>
      <point x="27.666666666666675" y="240.33333333333334"/>
      <point x="27.666666666666675" y="160.0" type="curve" smooth="yes"/>
      <point x="27.666666666666675" y="151.33333333333331" type="line" smooth="yes"/>
      <point x="27.666666666666675" y="51.33333333333333"/>
      <point x="87.0" y="-10.0"/>
      <point x="189.33333333333334" y="-10.0" type="curve" smooth="yes"/>
      <point x="270.66666666666663" y="-10.0"/>
      <point x="325.6666666666667" y="36.0"/>
      <point x="348.3333333333333" y="91.33333333333333" type="curve"/>
      <point x="377.33333333333337" y="91.33333333333333" type="line"/>
      <point x="370.3333333333333" y="189.33333333333334" type="line"/>
      <point x="332.3333333333333" y="160.0"/>
      <point x="300.0" y="149.66666666666666"/>
      <point x="259.0" y="149.66666666666666" type="curve" smooth="yes"/>
      <point x="229.66666666666666" y="149.66666666666666"/>
      <point x="223.00000000000003" y="156.33333333333334"/>
    </contour>
  </outline>
</glyph>
<glyph name="f" format="2">
  <advance width="600.0"/>
  <unicode hex="0066"/>
  <outline>
    <contour>
      <point x="417.66666666666663" y="770.0" type="curve"/>
      <point x="248.99999999999997" y="770.0"/>
      <point x="161.66666666666666" y="660.3333333333334"/>
      <point x="161.66666666666666" y="560.0" type="curve" smooth="yes"/>
      <point x="161.66666666666666" y="414.6666666666667"/>
      <point x="161.66666666666666" y="269.3333333333333"/>
      <point x="161.66666666666666" y="124.0" type="curve"/>
      <point x="361.0" y="124.0" type="line"/>
      <point x="328.6666666666667" y="195.33333333333331" type="line"/>
      <point x="347.6666666666667" y="219.33333333333331"/>
      <point x="358.33333333333337" y="250.66666666666663"/>
      <point x="358.33333333333337" y="289.0" type="curve" smooth="yes"/>
      <point x="358.33333333333337" y="353.66666666666674"/>
      <point x="358.33333333333337" y="426.00000000000006"/>
      <point x="358.33333333333337" y="498.6666666666667" type="curve" smooth="yes"/>
      <point x="347.33333333333337" y="526.6666666666666"/>
      <point x="339.99999999999994" y="556.6666666666666"/>
      <point x="338.6666666666666" y="584.6666666666666" type="curve" smooth="yes"/>
      <point x="359.99999999999994" y="588.3333333333334"/>
      <point x="380.6666666666667" y="589.3333333333333"/>
      <point x="399.99999999999994" y="589.3333333333333" type="curve"/>
      <point x="476.0" y="589.3333333333333"/>
      <point x="521.9999999999998" y="583.3333333333334"/>
      <point x="572.6666666666666" y="567.0" type="curve"/>
      <point x="578.6666666666666" y="567.0" type="line"/>
      <point x="584.3333333333333" y="593.3333333333333"/>
      <point x="584.9999999999999" y="613.3333333333334"/>
      <point x="584.9999999999999" y="641.3333333333333" type="curve"/>
      <point x="584.9999999999999" y="687.3333333333334"/>
      <point x="578.3333333333333" y="719.0"/>
      <point x="558.3333333333333" y="739.0000000000001" type="curve" smooth="yes"/>
      <point x="539.0" y="758.3333333333334"/>
      <point x="500.66666666666663" y="770.0"/>
    </contour>
    <contour>
      <point x="27.66666666666667" y="500.0" type="line"/>
      <point x="27.66666666666667" y="494.0"/>
      <point x="27.66666666666667" y="488.0"/>
      <point x="27.66666666666667" y="465.66666666666663" type="curve" smooth="yes"/>
      <point x="27.66666666666667" y="349.66666666666663"/>
      <point x="66.66666666666667" y="326.6666666666667"/>
      <point x="220.33333333333331" y="326.6666666666667" type="curve" smooth="yes"/>
      <point x="558.3333333333333" y="326.6666666666667" type="line"/>
      <point x="562.9999999999999" y="345.6666666666667"/>
      <point x="565.3333333333333" y="370.66666666666663"/>
      <point x="565.3333333333333" y="396.33333333333337" type="curve" smooth="yes"/>
      <point x="565.3333333333333" y="483.00000000000006"/>
      <point x="545.9999999999999" y="500.0"/>
      <point x="482.33333333333326" y="500.0" type="curve"/>
    </contour>
    <contour>
      <point x="34.66666666666667" y="190.0" type="line"/>
      <point x="31.333333333333343" y="170.0"/>
      <point x="29.333333333333343" y="151.33333333333334"/>
      <point x="29.333333333333343" y="131.0" type="curve" smooth="yes"/>
      <point x="29.333333333333343" y="35.0"/>
      <point x="49.0" y="0.0"/>
      <point x="129.66666666666669" y="0.0" type="curve" smooth="yes"/>
      <point x="527.0000000000001" y="0.0" type="line"/>
      <point x="532.0" y="17.33333333333334"/>
      <point x="536.0" y="38.333333333333336"/>
      <point x="536.0" y="63.66666666666666" type="curve" smooth="yes"/>
      <point x="536.0" y="147.99999999999997"/>
      <point x="480.6666666666667" y="190.0"/>
      <point x="351.66666666666663" y="190.0" type="curve"/>
    </contour>
  </outline>
</glyph>
<glyph name="o" format="2">
  <advance width="600.0"/>
  <unicode hex="006F"/>
  <anchor x="300.0" y="557.6666666666666" name="top"/>
  <anchor x="300.0" y="-1.0" name="bottom"/>
  <anchor x="426.99999999999994" y="528.6666666666666" name="horn"/>
  <anchor x="243.33333333333331" y="557.6666666666666" name="tildeviet"/>
  <anchor x="299.6666666666667" y="584.0" name="hook"/>
  <anchor x="498.0" y="61.0" name="ogonek"/>
  <outline>
    <contour>
      <point x="300.66666666666663" y="558.6666666666666" type="curve" smooth="yes"/>
      <point x="135.66666666666669" y="558.6666666666666"/>
      <point x="34.66666666666667" y="445.66666666666663"/>
      <point x="34.66666666666667" y="262.0" type="curve" smooth="yes"/>
      <point x="34.66666666666667" y="248.0" type="line" smooth="yes"/>
      <point x="34.66666666666667" y="75.33333333333334"/>
      <point x="144.99999999999997" y="-12.0"/>
      <point x="299.0" y="-12.0" type="curve" smooth="yes"/>
      <point x="464.0" y="-12.0"/>
      <point x="565.3333333333333" y="86.33333333333334"/>
      <point x="565.3333333333333" y="247.33333333333331" type="curve" smooth="yes"/>
      <point x="565.3333333333333" y="261.33333333333337" type="line" smooth="yes"/>
      <point x="565.3333333333333" y="459.3333333333333"/>
      <point x="454.0" y="558.6666666666666"/>
    </contour>
    <contour>
      <point x="311.0" y="386.6666666666667" type="curve" smooth="yes"/>
      <point x="330.66666666666663" y="386.6666666666667"/>
      <point x="343.66666666666674" y="385.3333333333333"/>
      <point x="356.33333333333337" y="380.6666666666667" type="curve" smooth="yes"/>
      <point x="365.3333333333333" y="348.3333333333333"/>
      <point x="368.3333333333333" y="313.66666666666663"/>
      <point x="368.3333333333333" y="263.0" type="curve" smooth="yes"/>
      <point x="368.3333333333333" y="252.0" type="line" smooth="yes"/>
      <point x="368.3333333333333" y="185.66666666666663"/>
      <point x="343.6666666666667" y="160.0"/>
      <point x="290.0" y="160.0" type="curve" smooth="yes"/>
      <point x="266.6666666666667" y="160.0"/>
      <point x="253.33333333333331" y="162.0"/>
      <point x="240.0" y="166.0" type="curve" smooth="yes"/>
      <point x="234.33333333333331" y="186.33333333333331"/>
      <point x="231.66666666666663" y="211.66666666666666"/>
      <point x="231.66666666666663" y="246.33333333333331" type="curve" smooth="yes"/>
      <point x="231.66666666666663" y="257.3333333333333" type="line" smooth="yes"/>
      <point x="231.66666666666663" y="350.33333333333337"/>
      <point x="256.3333333333333" y="386.6666666666667"/>
    </contour>
  </outline>
</glyph>
<glyph name="r" format="2">
  <advance width="600.0"/>
  <unicode hex="0072"/>
  <outline>
    <contour>
      <point x="168.00000000000003" y="179.66666666666666" type="line"/>
      <point x="336.6666666666666" y="162.99999999999997" type="line"/>
      <point x="336.6666666666666" y="232.0"/>
      <point x="336.6666666666666" y="300.3333333333333"/>
      <point x="336.6666666666666" y="369.3333333333333" type="curve" smooth="yes"/>
      <point x="336.6666666666666" y="458.0"/>
      <point x="292.99999999999994" y="558.6666666666666"/>
      <point x="178.00000000000003" y="558.6666666666666" type="curve" smooth="yes"/>
      <point x="132.0" y="558.6666666666666"/>
      <point x="76.33333333333333" y="553.6666666666667"/>
      <point x="30.33333333333334" y="546.6666666666666" type="curve"/>
      <point x="23.000000000000007" y="509.00000000000006"/>
      <point x="20.000000000000007" y="482.00000000000006"/>
      <point x="20.000000000000007" y="452.00000000000006" type="curve"/>
      <point x="20.000000000000007" y="383.66666666666674"/>
      <point x="41.0" y="348.33333333333337"/>
      <point x="69.33333333333333" y="348.33333333333337" type="curve" smooth="yes"/>
      <point x="91.66666666666669" y="348.33333333333337"/>
      <point x="113.33333333333334" y="356.66666666666674"/>
      <point x="137.66666666666669" y="386.0000000000001" type="curve" smooth="yes"/>
      <point x="143.3333333333334" y="383.3333333333334" type="line"/>
      <point x="143.3333333333334" y="351.33333333333337"/>
      <point x="143.3333333333334" y="319.0"/>
      <point x="143.3333333333334" y="287.0" type="curve" smooth="yes"/>
      <point x="143.3333333333334" y="249.0"/>
      <point x="152.33333333333337" y="217.33333333333334"/>
      <point x="175.33333333333337" y="195.66666666666663" type="curve" smooth="yes"/>
    </contour>
    <contour>
      <point x="325.6666666666666" y="385.66666666666663" type="line"/>
      <point x="325.66666666666663" y="221.0" type="line"/>
      <point x="353.3333333333333" y="295.3333333333333"/>
      <point x="399.66666666666663" y="330.0"/>
      <point x="462.66666666666663" y="330.0" type="curve" smooth="yes"/>
      <point x="502.33333333333337" y="330.0"/>
      <point x="532.3333333333334" y="320.66666666666663"/>
      <point x="562.9999999999999" y="301.0" type="curve"/>
      <point x="568.9999999999999" y="301.0" type="line"/>
      <point x="578.6666666666665" y="335.3333333333333"/>
      <point x="583.9999999999999" y="385.6666666666667"/>
      <point x="583.9999999999999" y="430.00000000000006" type="curve"/>
      <point x="583.9999999999999" y="486.66666666666663"/>
      <point x="573.0" y="524.6666666666666"/>
      <point x="551.6666666666665" y="546.0" type="curve" smooth="yes"/>
      <point x="537.6666666666665" y="560.0"/>
      <point x="519.6666666666666" y="566.6666666666666"/>
      <point x="495.99999999999994" y="566.6666666666666" type="curve" smooth="yes"/>
      <point x="437.33333333333326" y="566.6666666666666"/>
      <point x="376.6666666666667" y="510.0000000000001"/>
      <point x="341.66666666666663" y="385.66666666666663" type="curve"/>
    </contour>
    <contour>
      <point x="35.66666666666667" y="189.99999999999997" type="line"/>
      <point x="31.666666666666675" y="168.33333333333331"/>
      <point x="29.333333333333343" y="147.66666666666666"/>
      <point x="29.333333333333343" y="125.99999999999999" type="curve" smooth="yes"/>
      <point x="29.333333333333343" y="38.33333333333333"/>
      <point x="49.66666666666667" y="0.0"/>
      <point x="131.66666666666666" y="0.0" type="curve" smooth="yes"/>
      <point x="513.0" y="0.0" type="line"/>
      <point x="518.0" y="17.333333333333336"/>
      <point x="522.0000000000001" y="38.333333333333336"/>
      <point x="522.0000000000001" y="63.66666666666666" type="curve" smooth="yes"/>
      <point x="522.0000000000001" y="148.0"/>
      <point x="463.6666666666667" y="189.99999999999997"/>
      <point x="334.6666666666667" y="189.99999999999997" type="curve"/>
    </contour>
  </outline>
</glyph>
<glyph name="s" format="2">
  <advance width="600.0"/>
  <unicode hex="0073"/>
  <anchor x="307.33333333333337" y="557.6666666666666" name="top"/>
  <anchor x="301.33333333333337" y="-1.0" name="bottom"/>
  <anchor x="414.66666666666663" y="550.3333333333335" name="dot"/>
  <outline>
    <contour>
      <point x="302.66666666666663" y="167.3333333333333" type="curve" smooth="yes"/>
      <point x="179.66666666666663" y="167.3333333333333"/>
      <point x="127.33333333333333" y="179.33333333333334"/>
      <point x="50.33333333333333" y="215.0" type="curve"/>
      <point x="44.33333333333333" y="215.0" type="line"/>
      <point x="38.0" y="192.66666666666666"/>
      <point x="33.333333333333336" y="161.33333333333334"/>
      <point x="33.333333333333336" y="138.33333333333331" type="curve" smooth="yes"/>
      <point x="33.333333333333336" y="81.66666666666667"/>
      <point x="43.33333333333333" y="57.666666666666664"/>
      <point x="65.33333333333333" y="35.666666666666664" type="curve" smooth="yes"/>
      <point x="95.0" y="6.000000000000001"/>
      <point x="162.33333333333337" y="-10.666666666666668"/>
      <point x="284.0" y="-10.666666666666668" type="curve" smooth="yes"/>
      <point x="483.66666666666663" y="-10.666666666666668"/>
      <point x="570.0000000000001" y="38.66666666666667"/>
      <point x="570.0000000000001" y="153.33333333333334" type="curve" smooth="yes"/>
      <point x="570.0000000000001" y="239.33333333333334"/>
      <point x="517.0" y="290.6666666666667"/>
      <point x="385.3333333333333" y="310.3333333333333" type="curve" smooth="yes"/>
      <point x="302.0" y="323.6666666666667" type="line" smooth="yes"/>
      <point x="251.0" y="332.3333333333333"/>
      <point x="238.33333333333331" y="339.99999999999994"/>
      <point x="238.33333333333331" y="354.0" type="curve" smooth="yes"/>
      <point x="238.33333333333331" y="371.33333333333337"/>
      <point x="255.99999999999997" y="382.0"/>
      <point x="324.66666666666674" y="382.0" type="curve" smooth="yes"/>
      <point x="432.3062330623334" y="382.0"/>
      <point x="498.0" y="368.3333333333334"/>
      <point x="536.6666666666666" y="348.00000000000006" type="curve"/>
      <point x="542.6666666666665" y="348.00000000000006" type="line"/>
      <point x="546.3333333333333" y="366.3333333333333"/>
      <point x="548.3333333333333" y="385.33333333333337"/>
      <point x="548.3333333333333" y="402.33333333333337" type="curve" smooth="yes"/>
      <point x="548.3333333333333" y="467.66666666666663"/>
      <point x="539.6666666666667" y="493.66666666666674"/>
      <point x="514.6666666666667" y="518.6666666666667" type="curve" smooth="yes"/>
      <point x="491.0" y="542.3333333333333"/>
      <point x="445.0" y="557.3333333333333"/>
      <point x="342.99999999999994" y="557.3333333333333" type="curve" smooth="yes"/>
      <point x="164.66666666666666" y="557.3333333333333"/>
      <point x="51.66666666666668" y="503.0"/>
      <point x="51.66666666666668" y="386.6666666666667" type="curve" smooth="yes"/>
      <point x="51.66666666666668" y="297.0"/>
      <point x="101.66666666666669" y="260.6666666666667"/>
      <point x="252.0" y="234.99999999999997" type="curve" smooth="yes"/>
      <point x="339.33333333333337" y="218.66666666666669" type="line" smooth="yes"/>
      <point x="382.1645765334667" y="210.68296335339997"/>
      <point x="391.2617724078667" y="196.8079355608667"/>
      <point x="388.33333333333337" y="175.00000000000003" type="curve" smooth="yes"/>
      <point x="367.9481317936667" y="169.90369961506664"/>
      <point x="339.66666666666663" y="167.3333333333333"/>
    </contour>
  </outline>
</glyph>
<glyph name="y" format="2">
  <advance width="600.0"/>
  <unicode hex="0079"/>
  <anchor x="303.33333333333337" y="557.6666666666666" name="top"/>
  <anchor x="545.0" y="-161.0" name="dot"/>
  <anchor x="303.6666666666667" y="584.0" name="hook"/>
  <outline>
    <contour>
      <point x="448.33333333333337" y="553.3333333333333" type="curve" smooth="yes"/>
      <point x="418.66666666666663" y="553.3333333333333"/>
      <point x="400.6666666666667" y="551.3333333333334"/>
      <point x="379.3333333333333" y="546.6666666666666" type="curve"/>
      <point x="361.33333333333337" y="253.66666666666666"/>
      <point x="324.0" y="94.66666666666667"/>
      <point x="260.0" y="30.666666666666657" type="curve" smooth="yes"/>
      <point x="218.66666666666666" y="-10.666666666666686"/>
      <point x="160.33333333333334" y="-27.666666666666686"/>
      <point x="86.66666666666666" y="-27.666666666666686" type="curve"/>
      <point x="80.33333333333334" y="-27.666666666666686"/>
      <point x="74.0" y="-27.666666666666686"/>
      <point x="67.66666666666667" y="-27.666666666666686" type="curve"/>
      <point x="61.666666666666686" y="-27.666666666666686" type="line"/>
      <point x="61.666666666666686" y="-31.666666666666686" type="line" smooth="yes"/>
      <point x="61.666666666666686" y="-104.33333333333334"/>
      <point x="74.66666666666667" y="-150.66666666666669"/>
      <point x="101.33333333333333" y="-177.33333333333331" type="curve" smooth="yes"/>
      <point x="120.33333333333334" y="-196.33333333333331"/>
      <point x="138.0" y="-203.33333333333331"/>
      <point x="168.33333333333331" y="-203.33333333333331" type="curve" smooth="yes"/>
      <point x="236.0" y="-203.33333333333331"/>
      <point x="306.66666666666663" y="-169.66666666666669"/>
      <point x="368.6666666666667" y="-107.0" type="curve" smooth="yes"/>
      <point x="471.33333333333337" y="-2.3333333333333357"/>
      <point x="538.6666666666666" y="191.66666666666669"/>
      <point x="562.3333333333334" y="471.99999999999994" type="curve" smooth="yes"/>
      <point x="567.6666666666666" y="530.9999999999999"/>
      <point x="528.0000000000001" y="553.3333333333333"/>
    </contour>
    <contour>
      <point x="105.33333333333333" y="553.6666666666666" type="curve" smooth="yes"/>
      <point x="73.33333333333333" y="553.6666666666666"/>
      <point x="54.33333333333334" y="551.0"/>
      <point x="32.000000000000014" y="546.6666666666666" type="curve"/>
      <point x="53.66666666666667" y="269.3333333333333"/>
      <point x="104.33333333333333" y="151.66666666666666"/>
      <point x="175.0" y="81.00000000000001" type="curve" smooth="yes"/>
      <point x="216.33333333333331" y="39.66666666666667"/>
      <point x="270.0" y="16.666666666666668"/>
      <point x="331.6666666666667" y="16.666666666666668" type="curve" smooth="yes"/>
      <point x="338.6666666666667" y="16.666666666666668" type="line"/>
      <point x="377.66666666666663" y="154.33333333333331" type="line"/>
      <point x="317.0" y="154.33333333333331" type="line"/>
      <point x="275.0" y="226.33333333333334"/>
      <point x="250.33333333333331" y="311.99999999999994"/>
      <point x="238.33333333333334" y="476.33333333333337" type="curve" smooth="yes"/>
      <point x="234.33333333333331" y="533.3333333333333"/>
      <point x="195.0" y="553.6666666666666"/>
    </contour>
  </outline>
</glyph>
<glyph name="sterling" format="2">
  <advance width="600.0"/>
  <unicode hex="00A3"/>
  <outline>
    <contour>
      <point x="39.333333333333336" y="410.0" type="line"/>
      <point x="39.333333333333336" y="404.0"/>
      <point x="39.333333333333336" y="397.99999999999994"/>
      <point x="39.333333333333336" y="391.0" type="curve" smooth="yes"/>
      <point x="39.333333333333336" y="288.2222222222"/>
      <point x="65.33333333333333" y="263.33333333333337"/>
      <point x="166.66666666666669" y="263.33333333333337" type="curve" smooth="yes"/>
      <point x="481.6666666666667" y="263.33333333333337" type="line"/>
      <point x="485.66666666666663" y="284.3333333333333"/>
      <point x="488.66666666666663" y="307.3333333333333"/>
      <point x="488.66666666666663" y="326.3333333333333" type="curve" smooth="yes"/>
      <point x="488.66666666666663" y="390.3333333333333"/>
      <point x="469.99999999999994" y="410.0"/>
      <point x="412.3333333333333" y="410.0" type="curve"/>
    </contour>
    <contour>
      <point x="359.0" y="520.6666666666666" type="curve" smooth="yes"/>
      <point x="426.33333333333337" y="520.6666666666666"/>
      <point x="478.3333333333333" y="512.0"/>
      <point x="540.9999999999999" y="469.33333333333337" type="curve"/>
      <point x="547.0" y="469.33333333333337" type="line"/>
      <point x="553.6666666666667" y="488.9999999999999"/>
      <point x="557.0" y="511.00000000000006"/>
      <point x="557.0" y="544.3333333333334" type="curve" smooth="yes"/>
      <point x="557.0" y="610.6666666666666"/>
      <point x="546.0" y="646.6666666666666"/>
      <point x="515.3333333333334" y="676.6666666666666" type="curve" smooth="yes"/>
      <point x="483.0" y="708.6666666666667"/>
      <point x="417.3333333333333" y="720.6666666666667"/>
      <point x="338.0" y="720.6666666666667" type="curve" smooth="yes"/>
      <point x="152.0" y="720.6666666666667"/>
      <point x="68.0" y="640.0"/>
      <point x="68.0" y="540.3333333333334" type="curve" smooth="yes"/>
      <point x="68.0" y="531.3333333333333" type="line" smooth="yes"/>
      <point x="68.0" y="425.0"/>
      <point x="169.0" y="338.3333333333333"/>
      <point x="169.0" y="229.0" type="curve" smooth="yes"/>
      <point x="169.0" y="181.33333333333331"/>
      <point x="129.0" y="152.99999999999997"/>
      <point x="58.0" y="152.99999999999997" type="curve" smooth="yes"/>
      <point x="48.0" y="152.99999999999997" type="line"/>
      <point x="42.66666666666667" y="128.33333333333331"/>
      <point x="40.0" y="108.66666666666666"/>
      <point x="40.0" y="78.33333333333333" type="curve" smooth="yes"/>
      <point x="40.0" y="8.333333333333334"/>
      <point x="61.66666666666667" y="-20.0"/>
      <point x="110.0" y="-20.0" type="curve" smooth="yes"/>
      <point x="179.00000000000003" y="-20.0"/>
      <point x="243.0" y="8.0"/>
      <point x="283.3333333333333" y="59.0" type="curve"/>
      <point x="289.3333333333333" y="59.0" type="line"/>
      <point x="348.0" y="2.666666666666667"/>
      <point x="412.0" y="-20.0"/>
      <point x="477.3333333333333" y="-20.0" type="curve" smooth="yes"/>
      <point x="544.9999999999999" y="-20.0"/>
      <point x="570.6666666666667" y="14.999999999999996"/>
      <point x="570.6666666666667" y="103.33333333333331" type="curve" smooth="yes"/>
      <point x="570.6666666666667" y="142.33333333333331"/>
      <point x="565.6666666666666" y="173.33333333333331"/>
      <point x="554.0" y="201.66666666666663" type="curve"/>
      <point x="548.0" y="201.66666666666663" type="line"/>
      <point x="524.6666666666666" y="182.66666666666663"/>
      <point x="496.9999999999999" y="174.33333333333331"/>
      <point x="453.6666666666667" y="174.33333333333331" type="curve" smooth="yes"/>
      <point x="415.66666666666663" y="174.33333333333331"/>
      <point x="362.0" y="177.99999999999997"/>
      <point x="294.0" y="192.33333333333334" type="curve"/>
      <point x="339.0" y="158.0" type="line"/>
      <point x="299.0" y="213.66666666666663" type="line"/>
      <point x="321.3333333333333" y="160.0" type="line"/>
      <point x="322.6666666666667" y="170.66666666666666"/>
      <point x="323.33333333333337" y="180.66666666666666"/>
      <point x="323.33333333333337" y="192.0" type="curve" smooth="yes"/>
      <point x="323.33333333333337" y="261.00000000000006"/>
      <point x="266.6666666666667" y="372.00000000000006"/>
      <point x="266.6666666666667" y="465.66666666666674" type="curve" smooth="yes"/>
      <point x="266.6666666666667" y="480.66666666666663"/>
      <point x="267.66666666666663" y="495.0"/>
      <point x="271.0" y="509.00000000000006" type="curve"/>
      <point x="289.6666666666667" y="516.0"/>
      <point x="318.33333333333337" y="520.6666666666666"/>
    </contour>
  </outline>
</glyph>
<glyph name="eth" format="2">
  <advance width="600.0"/>
  <unicode hex="00F0"/>
  <outline>
    <contour>
      <point x="553.0" y="746.0000000000001" type="curve"/>
      <point x="383.6666666666667" y="699.3333333333334" type="line" smooth="yes"/>
      <point x="355.0" y="691.3333333333333"/>
      <point x="324.6666666666667" y="703.0"/>
      <point x="291.33333333333337" y="694.0" type="curve" smooth="yes"/>
      <point x="162.33333333333334" y="659.0" type="line" smooth="yes"/>
      <point x="112.66666666666667" y="645.3333333333333"/>
      <point x="100.0" y="626.3333333333333"/>
      <point x="100.0" y="580.6666666666667" type="curve" smooth="yes"/>
      <point x="100.0" y="559.3333333333333"/>
      <point x="102.33333333333334" y="543.0"/>
      <point x="106.33333333333333" y="525.6666666666666" type="curve"/>
      <point x="314.6666666666667" y="583.3333333333334" type="line" smooth="yes"/>
      <point x="345.0" y="592.0"/>
      <point x="380.33333333333337" y="580.6666666666666"/>
      <point x="409.6666666666667" y="588.6666666666666" type="curve" smooth="yes"/>
      <point x="470.6666666666667" y="605.3333333333334" type="line" smooth="yes"/>
      <point x="543.6666666666666" y="625.6666666666666"/>
      <point x="560.0" y="647.3333333333334"/>
      <point x="560.0" y="699.0" type="curve" smooth="yes"/>
      <point x="560.0" y="716.3333333333335"/>
      <point x="558.0" y="731.3333333333333"/>
    </contour>
    <contour>
      <point x="228.00000000000003" y="492.0" type="curve" smooth="yes"/>
      <point x="116.33333333333333" y="492.0"/>
      <point x="34.66666666666668" y="403.0"/>
      <point x="34.66666666666668" y="258.6666666666667" type="curve" smooth="yes"/>
      <point x="34.66666666666668" y="244.66666666666669" type="line" smooth="yes"/>
      <point x="34.66666666666668" y="74.33333333333333"/>
      <point x="145.0" y="-12.0"/>
      <point x="298.99999999999994" y="-12.0" type="curve" smooth="yes"/>
      <point x="465.3333333333333" y="-12.0"/>
      <point x="565.3333333333334" y="96.0"/>
      <point x="565.3333333333334" y="299.3333333333333" type="curve" smooth="yes"/>
      <point x="565.3333333333334" y="313.33333333333337" type="line" smooth="yes"/>
      <point x="565.3333333333334" y="481.33333333333337"/>
      <point x="488.3333333333333" y="626.3333333333334"/>
      <point x="396.6666666666667" y="718.0" type="curve" smooth="yes"/>
      <point x="357.33333333333337" y="757.3333333333333"/>
      <point x="324.0" y="770.0"/>
      <point x="275.6666666666667" y="770.0" type="curve" smooth="yes"/>
      <point x="223.0" y="770.0"/>
      <point x="189.66666666666669" y="750.3333333333334"/>
      <point x="162.66666666666666" y="723.6666666666666" type="curve"/>
      <point x="162.66666666666666" y="718.3333333333333" type="line"/>
      <point x="320.0" y="580.0000000000001"/>
      <point x="368.33333333333337" y="469.33333333333337"/>
      <point x="368.33333333333337" y="292.66666666666663" type="curve" smooth="yes"/>
      <point x="368.33333333333337" y="280.6666666666667" type="line" smooth="yes"/>
      <point x="368.33333333333337" y="194.33333333333334"/>
      <point x="343.66666666666663" y="160.0"/>
      <point x="289.99999999999994" y="160.0" type="curve" smooth="yes"/>
      <point x="271.66666666666663" y="160.0"/>
      <point x="258.33333333333326" y="161.99999999999994"/>
      <point x="246.0" y="167.0" type="curve" smooth="yes"/>
      <point x="235.33333333333331" y="182.66666666666666"/>
      <point x="231.66666666666666" y="206.99999999999997"/>
      <point x="231.66666666666666" y="243.00000000000003" type="curve" smooth="yes"/>
      <point x="231.66666666666666" y="254.00000000000003" type="line" smooth="yes"/>
      <point x="231.66666666666666" y="330.3333333333333"/>
      <point x="253.33333333333334" y="361.0"/>
      <point x="299.66666666666663" y="361.0" type="curve" smooth="yes"/>
      <point x="340.0" y="361.0"/>
      <point x="356.66666666666663" y="355.00000000000006"/>
      <point x="393.6666666666667" y="330.0" type="curve"/>
      <point x="393.6666666666667" y="461.3333333333333" type="line"/>
      <point x="334.33333333333337" y="461.3333333333333" type="line"/>
      <point x="303.66666666666663" y="482.3333333333333"/>
      <point x="275.6666666666667" y="492.0"/>
    </contour>
  </outline>
</glyph>
<glyph name="divide" format="2">
  <advance width="600.0"/>
  <unicode hex="00F7"/>
  <outline>
    <contour>
      <point x="59.66666666666667" y="385.0" type="line"/>
      <point x="54.0" y="363.3333333333333"/>
      <point x="50.0" y="335.6666666666667"/>
      <point x="50.0" y="314.66666666666663" type="curve" smooth="yes"/>
      <point x="50.0" y="231.66666666666669"/>
      <point x="74.33333333333334" y="208.33333333333337"/>
      <point x="160.33333333333331" y="208.33333333333337" type="curve"/>
      <point x="545.0" y="208.33333333333337" type="line"/>
      <point x="551.0" y="234.66666666666669"/>
      <point x="554.0" y="257.6666666666667"/>
      <point x="554.0" y="278.6666666666667" type="curve" smooth="yes"/>
      <point x="554.0" y="358.6666666666667"/>
      <point x="529.6666666666667" y="385.0"/>
      <point x="454.3333333333333" y="385.0" type="curve"/>
    </contour>
    <contour>
      <point x="209.33333333333334" y="575.0000000000001" type="curve"/>
      <point x="209.33333333333334" y="489.3333333333333" type="line" smooth="yes"/>
      <point x="209.33333333333334" y="426.3333333333333"/>
      <point x="264.6666666666667" y="417.3333333333333"/>
      <point x="312.66666666666663" y="417.3333333333333" type="curve" smooth="yes"/>
      <point x="335.66666666666663" y="417.3333333333333"/>
      <point x="365.66666666666674" y="419.3333333333333"/>
      <point x="390.6666666666667" y="423.33333333333337" type="curve"/>
      <point x="390.6666666666667" y="508.99999999999994" type="line" smooth="yes"/>
      <point x="390.6666666666667" y="572.0"/>
      <point x="335.3333333333333" y="581.0"/>
      <point x="287.33333333333337" y="581.0" type="curve"/>
      <point x="264.33333333333337" y="581.0"/>
      <point x="234.33333333333337" y="579.0"/>
    </contour>
    <contour>
      <point x="209.33333333333334" y="170.00000000000003" type="curve"/>
      <point x="209.33333333333334" y="84.33333333333333" type="line" smooth="yes"/>
      <point x="209.33333333333334" y="21.333333333333332"/>
      <point x="264.6666666666667" y="12.333333333333332"/>
      <point x="312.66666666666663" y="12.333333333333332" type="curve" smooth="yes"/>
      <point x="335.66666666666663" y="12.333333333333332"/>
      <point x="365.66666666666674" y="14.333333333333334"/>
      <point x="390.6666666666667" y="18.333333333333336" type="curve"/>
      <point x="390.6666666666667" y="104.00000000000001" type="line" smooth="yes"/>
      <point x="390.6666666666667" y="167.0"/>
      <point x="335.3333333333333" y="176.0"/>
      <point x="287.33333333333337" y="176.0" type="curve"/>
      <point x="264.33333333333337" y="176.0"/>
      <point x="234.33333333333337" y="174.0"/>
    </contour>
  </outline>
</glyph>
<glyph name="dotlessi" format="2">
  <advance width="600.0"/>
  <unicode hex="0131"/>
  <outline>
    <contour>
      <point x="242.66666666666666" y="181.0" type="line"/>
      <point x="417.0" y="163.66666666666666" type="line"/>
      <point x="417.0" y="262.0"/>
      <point x="417.0" y="359.6666666666667"/>
      <point x="417.0" y="458.0" type="curve" smooth="yes"/>
      <point x="417.0" y="528.3333333333333"/>
      <point x="379.66666666666663" y="556.6666666666666"/>
      <point x="251.6666666666667" y="556.6666666666666" type="curve"/>
      <point x="173.33333333333331" y="556.6666666666666"/>
      <point x="102.00000000000006" y="548.9999999999999"/>
      <point x="47.99999999999999" y="536.6666666666666" type="curve"/>
      <point x="41.66666666666667" y="512.0"/>
      <point x="37.666666666666664" y="486.0"/>
      <point x="37.666666666666664" y="461.6666666666667" type="curve" smooth="yes"/>
      <point x="37.666666666666664" y="385.33333333333337"/>
      <point x="56.66666666666667" y="337.0"/>
      <point x="97.33333333333333" y="337.0" type="curve" smooth="yes"/>
      <point x="126.66666666666666" y="337.0"/>
      <point x="157.33333333333334" y="346.0"/>
      <point x="214.33333333333334" y="379.6666666666667" type="curve" smooth="yes"/>
      <point x="218.33333333333331" y="376.66666666666674" type="line"/>
      <point x="218.33333333333331" y="346.6666666666667"/>
      <point x="218.33333333333331" y="316.33333333333337"/>
      <point x="218.33333333333331" y="286.3333333333333" type="curve" smooth="yes"/>
      <point x="218.33333333333331" y="248.66666666666666"/>
      <point x="226.33333333333334" y="218.0"/>
      <point x="249.33333333333331" y="195.99999999999997" type="curve" smooth="yes"/>
    </contour>
    <contour>
      <point x="40.66666666666668" y="189.99999999999997" type="line"/>
      <point x="36.33333333333334" y="167.33333333333331"/>
      <point x="34.000000000000014" y="146.66666666666666"/>
      <point x="34.000000000000014" y="122.99999999999999" type="curve" smooth="yes"/>
      <point x="34.000000000000014" y="36.0"/>
      <point x="52.666666666666686" y="0.0"/>
      <point x="134.66666666666669" y="0.0" type="curve" smooth="yes"/>
      <point x="568.6666666666667" y="0.0" type="line"/>
      <point x="573.6666666666667" y="17.333333333333336"/>
      <point x="577.6666666666667" y="38.33333333333332"/>
      <point x="577.6666666666667" y="63.66666666666666" type="curve" smooth="yes"/>
      <point x="577.6666666666667" y="148.0"/>
      <point x="525.6666666666667" y="189.99999999999997"/>
      <point x="396.66666666666663" y="189.99999999999997" type="curve" smooth="yes"/>
    </contour>
  </outline>
</glyph>
<glyph name="kgreenlandic" format="2">
  <advance width="600.0"/>
  <unicode hex="0138"/>
  <outline>
    <contour>
      <point x="249.99999999999997" y="-4.440892098500626e-16" type="curve"/>
      <point x="249.99999999999997" y="440.6666666666667" type="line" smooth="yes"/>
      <point x="249.99999999999997" y="489.33333333333337"/>
      <point x="243.0" y="512.6666666666666"/>
      <point x="225.66666666666666" y="530.0" type="curve" smooth="yes"/>
      <point x="205.66666666666666" y="550.0"/>
      <point x="167.66666666666669" y="557.0"/>
      <point x="113.0" y="557.0" type="curve" smooth="yes"/>
      <point x="85.66666666666667" y="557.0"/>
      <point x="59.66666666666667" y="554.6666666666666"/>
      <point x="34.333333333333336" y="548.9999999999999" type="curve"/>
      <point x="42.66666666666667" y="511.6666666666667"/>
      <point x="46.66666666666667" y="471.3333333333333"/>
      <point x="46.66666666666667" y="420.3333333333333" type="curve" smooth="yes"/>
      <point x="46.66666666666667" y="69.33333333333333" type="line" smooth="yes"/>
      <point x="46.66666666666667" y="6.666666666666665"/>
      <point x="79.66666666666669" y="-6.666666666666666"/>
      <point x="174.0" y="-6.666666666666666" type="curve" smooth="yes"/>
      <point x="201.66666666666666" y="-6.666666666666666"/>
      <point x="227.66666666666663" y="-4.666666666666666"/>
    </contour>
    <contour>
      <point x="370.99999999999994" y="560.0" type="line"/>
      <point x="323.99999999999994" y="404.00000000000006"/>
      <point x="227.33333333333331" y="326.3333333333333"/>
      <point x="107.00000000000001" y="277.6666666666667" type="curve"/>
      <point x="187.3333333333333" y="171.33333333333331" type="line"/>
      <point x="322.6666666666667" y="193.33333333333331"/>
      <point x="475.6666666666667" y="284.6666666666667"/>
      <point x="550.3333333333334" y="433.66666666666674" type="curve" smooth="yes"/>
      <point x="567.3333333333334" y="467.66666666666663"/>
      <point x="568.3333333333334" y="479.66666666666663"/>
      <point x="568.3333333333334" y="493.66666666666663" type="curve" smooth="yes"/>
      <point x="568.3333333333334" y="534.0"/>
      <point x="487.3333333333333" y="560.0"/>
      <point x="395.0" y="560.0" type="curve"/>
    </contour>
    <contour>
      <point x="470.0" y="-10.0" type="curve" smooth="yes"/>
      <point x="525.3333333333334" y="-10.0"/>
      <point x="557.3333333333334" y="-1.6666666666666679"/>
      <point x="587.0" y="18.0" type="curve"/>
      <point x="509.3333333333332" y="120.0"/>
      <point x="454.0" y="220.0"/>
      <point x="406.33333333333337" y="355.0" type="curve"/>
      <point x="269.3333333333333" y="218.66666666666669" type="line"/>
      <point x="288.33333333333337" y="142.66666666666666"/>
      <point x="334.66666666666674" y="56.333333333333336"/>
      <point x="361.66666666666663" y="29.333333333333336" type="curve" smooth="yes"/>
      <point x="389.99999999999994" y="1.0"/>
      <point x="422.6666666666667" y="-10.0"/>
    </contour>
  </outline>
</glyph>
<glyph name="Eng" format="2">
  <advance width="600.0"/>
  <unicode hex="014A"/>
  <outline>
    <contour>
      <point x="277.66666666666663" y="-82.66666666666667" type="curve" smooth="yes"/>
      <point x="235.33333333333334" y="-82.66666666666667"/>
      <point x="204.00000000000003" y="-77.66666666666669"/>
      <point x="169.33333333333334" y="-63.66666666666667" type="curve"/>
      <point x="163.33333333333334" y="-63.66666666666667" type="line"/>
      <point x="157.66666666666669" y="-85.66666666666667"/>
      <point x="155.33333333333334" y="-102.33333333333334"/>
      <point x="155.33333333333334" y="-127.66666666666666" type="curve" smooth="yes"/>
      <point x="155.33333333333334" y="-164.33333333333337"/>
      <point x="163.00000000000003" y="-197.0"/>
      <point x="183.00000000000006" y="-217.0" type="curve" smooth="yes"/>
      <point x="205.6666666666667" y="-239.66666666666666"/>
      <point x="233.33333333333334" y="-250.0"/>
      <point x="296.33333333333326" y="-250.0" type="curve" smooth="yes"/>
      <point x="448.37606837606666" y="-250.0"/>
      <point x="561.6666666666667" y="-135.33333333333334"/>
      <point x="561.6666666666667" y="0.0" type="curve"/>
      <point x="548.3333333333335" y="28.333333333333336"/>
      <point x="522.1412053535998" y="49.333333333333336"/>
      <point x="422.3333333333333" y="49.33333333333333" type="curve"/>
      <point x="418.3333333333333" y="-55.33333333333335"/>
      <point x="364.33333333333337" y="-82.66666666666667"/>
    </contour>
    <component base="N"/>
  </outline>
</glyph>
<glyph name="Lj" format="2">
  <advance width="600.0"/>
  <unicode hex="01C8"/>
  <outline>
    <contour>
      <point x="125.0" y="0.0" type="curve" smooth="yes"/>
      <point x="347.0" y="0.0" type="line"/>
      <point x="360.0" y="86.0"/>
      <point x="340.0" y="196.66666666666666"/>
      <point x="275.0" y="196.66666666666666" type="curve" smooth="yes"/>
      <point x="175.66666666666666" y="196.66666666666666" type="line"/>
      <point x="175.66666666666666" y="305.66666666666663"/>
      <point x="175.66666666666666" y="502.66666666666674"/>
      <point x="175.66666666666666" y="602.6666666666667" type="curve"/>
      <point x="175.66666666666666" y="690.0"/>
      <point x="151.33333333333334" y="710.0"/>
      <point x="88.33333333333333" y="710.0" type="curve" smooth="yes"/>
      <point x="55.0" y="710.0"/>
      <point x="28.66666666666667" y="706.6666666666667"/>
      <point x="2.6666666666666696" y="700.0" type="curve"/>
      <point x="9.000000000000002" y="662.0000000000001"/>
      <point x="12.333333333333336" y="620.6666666666666"/>
      <point x="12.333333333333336" y="569.9999999999999" type="curve" smooth="yes"/>
      <point x="12.333333333333336" y="466.6666666666667"/>
      <point x="12.333333333333336" y="275.3333333333333"/>
      <point x="12.333333333333336" y="156.33333333333331" type="curve" smooth="yes"/>
      <point x="12.333333333333336" y="65.33333333333333"/>
      <point x="51.666666666666664" y="0.0"/>
    </contour>
    <contour>
      <point x="256.6666666666667" y="274.3333333333333" type="curve"/>
      <point x="255.33333333333334" y="181.33333333333334"/>
      <point x="253.99999999999997" y="106.33333333333333"/>
      <point x="254.00000000000003" y="51.00000000000001" type="curve" smooth="yes"/>
      <point x="254.00000000000003" y="0.33333333333333304"/>
      <point x="286.0" y="-26.333333333333332"/>
      <point x="361.66666666666663" y="-26.333333333333332" type="curve"/>
      <point x="377.33333333333326" y="34.33333333333333"/>
      <point x="391.6666666666666" y="107.66666666666666"/>
      <point x="391.6666666666666" y="207.0" type="curve" smooth="yes"/>
      <point x="391.6666666666666" y="268.33333333333326"/>
      <point x="373.0" y="284.3333333333333"/>
      <point x="335.33333333333326" y="284.3333333333333" type="curve" smooth="yes"/>
      <point x="304.0" y="284.3333333333333"/>
      <point x="277.66666666666663" y="280.99999999999994"/>
    </contour>
    <contour>
      <point x="459.33333333333337" y="556.6666666666666" type="curve" smooth="yes"/>
      <point x="406.6666666666667" y="556.6666666666666"/>
      <point x="363.6666666666666" y="553.0"/>
      <point x="309.3333333333333" y="546.6666666666666" type="curve"/>
      <point x="304.0" y="526.3333333333333"/>
      <point x="300.0" y="495.00000000000006"/>
      <point x="300.0" y="457.3333333333333" type="curve" smooth="yes"/>
      <point x="300.0" y="386.3333333333334"/>
      <point x="312.0" y="361.66666666666663"/>
      <point x="343.6666666666667" y="361.66666666666663" type="curve" smooth="yes"/>
      <point x="365.3333333333333" y="361.66666666666663"/>
      <point x="384.0" y="368.3333333333333"/>
      <point x="419.33333333333337" y="385.33333333333337" type="curve"/>
      <point x="425.3333333333333" y="380.6666666666667" type="line"/>
      <point x="425.3333333333333" y="270.3333333333333"/>
      <point x="425.3333333333333" y="160.33333333333331"/>
      <point x="425.3333333333333" y="49.99999999999997" type="curve" smooth="yes"/>
      <point x="425.3333333333333" y="6.999999999999989"/>
      <point x="425.00000000000006" y="-40.66666666666667"/>
      <point x="423.3333333333334" y="-65.66666666666669" type="curve"/>
      <point x="411.0" y="-68.33333333333334"/>
      <point x="395.66666666666663" y="-70.0"/>
      <point x="376.66666666666663" y="-70.0" type="curve" smooth="yes"/>
      <point x="341.66666666666663" y="-70.0"/>
      <point x="317.3333333333333" y="-66.33333333333334"/>
      <point x="286.33333333333337" y="-57.333333333333336" type="curve"/>
      <point x="280.3333333333333" y="-57.333333333333336" type="line"/>
      <point x="275.3333333333333" y="-82.0"/>
      <point x="273.6666666666666" y="-101.33333333333333"/>
      <point x="273.6666666666666" y="-128.0" type="curve" smooth="yes"/>
      <point x="273.6666666666666" y="-172.66666666666669"/>
      <point x="284.3333333333333" y="-200.0"/>
      <point x="304.3333333333333" y="-219.99999999999997" type="curve" smooth="yes"/>
      <point x="322.6666666666667" y="-238.33333333333331"/>
      <point x="354.0" y="-250.00000000000003"/>
      <point x="401.66666666666663" y="-250.00000000000003" type="curve" smooth="yes"/>
      <point x="518.0" y="-250.00000000000003"/>
      <point x="590.0" y="-133.00000000000003"/>
      <point x="590.0" y="9.999999999999979" type="curve" smooth="yes"/>
      <point x="590.0" y="188.00000000000003"/>
      <point x="590.0" y="305.0"/>
      <point x="590.0" y="474.99999999999994" type="curve" smooth="yes"/>
      <point x="590.0" y="539.0"/>
      <point x="551.3333333333333" y="556.6666666666666"/>
    </contour>
    <contour>
      <point x="359.33333333333326" y="781.0" type="curve"/>
      <point x="359.33333333333326" y="705.0" type="line" smooth="yes"/>
      <point x="359.33333333333326" y="647.0"/>
      <point x="419.99999999999994" y="623.0"/>
      <point x="500.66666666666663" y="623.0" type="curve" smooth="yes"/>
      <point x="534.6666666666667" y="623.0"/>
      <point x="575.0" y="629.0"/>
      <point x="608.6666666666667" y="640.6666666666666" type="curve"/>
      <point x="608.6666666666667" y="716.6666666666667" type="line" smooth="yes"/>
      <point x="608.6666666666667" y="774.6666666666666"/>
      <point x="549.6666666666667" y="793.3333333333333"/>
      <point x="471.3333333333335" y="793.3333333333333" type="curve" smooth="yes"/>
      <point x="436.3333333333334" y="793.3333333333333"/>
      <point x="392.99999999999994" y="788.3333333333333"/>
    </contour>
  </outline>
</glyph>
<glyph name="ogonekcomb" format="2">
  <unicode hex="0328"/>
  <anchor x="49.666666666666664" y="0.0" name="_ogonek"/>
  <outline>
    <contour>
      <point x="-16.666666666666668" y="19.0" type="curve" smooth="yes"/>
      <point x="-87.66666666666666" y="15.666666666666675"/>
      <point x="-168.99999999999997" y="-43.666666666666664"/>
      <point x="-168.99999999999997" y="-127.0" type="curve" smooth="yes"/>
      <point x="-168.99999999999997" y="-203.33333333333331"/>
      <point x="-119.66666666666666" y="-250.0"/>
      <point x="-32.666666666666664" y="-250.0" type="curve" smooth="yes"/>
      <point x="37.33333333333333" y="-250.0"/>
      <point x="68.33333333333333" y="-215.33333333333331"/>
      <point x="68.33333333333333" y="-153.00000000000003" type="curve" smooth="yes"/>
      <point x="68.33333333333333" y="-126.0"/>
      <point x="64.33333333333333" y="-104.33333333333334"/>
      <point x="52.33333333333333" y="-80.33333333333334" type="curve"/>
      <point x="46.33333333333333" y="-80.33333333333334" type="line"/>
      <point x="31.66666666666666" y="-91.33333333333334"/>
      <point x="15.66666666666666" y="-98.00000000000001"/>
      <point x="-2.3333333333333393" y="-98.00000000000001" type="curve" smooth="yes"/>
      <point x="-27.00000000000001" y="-98.00000000000001"/>
      <point x="-40.33333333333334" y="-87.66666666666666"/>
      <point x="-40.33333333333334" y="-67.33333333333336" type="curve" smooth="yes"/>
      <point x="-40.33333333333334" y="-35.0"/>
      <point x="-14.00000000000001" y="-18.333333333333336"/>
      <point x="26.999999999999993" y="-10.0" type="curve" smooth="yes"/>
      <point x="39.99999999999999" y="-7.333333333333332"/>
      <point x="45.99999999999999" y="-3.666666666666667"/>
      <point x="48.66666666666666" y="-2.220446049250313e-16" type="curve" smooth="yes"/>
      <point x="34.0" y="14.0"/>
      <point x="14.999999999999996" y="20.0"/>
    </contour>
  </outline>
</glyph>
<glyph name="pi" format="2">
  <advance width="600.0"/>
  <unicode hex="03C0"/>
  <outline>
    <contour>
      <point x="35.000000000000014" y="546.6666666666666" type="line"/>
      <point x="30.666666666666675" y="525.0"/>
      <point x="27.000000000000007" y="496.3333333333333"/>
      <point x="27.000000000000007" y="460.6666666666667" type="curve" smooth="yes"/>
      <point x="27.000000000000007" y="389.0"/>
      <point x="35.000000000000014" y="356.6666666666667"/>
      <point x="79.00000000000001" y="356.6666666666667" type="curve" smooth="yes"/>
      <point x="566.3333333333333" y="356.6666666666667" type="line"/>
      <point x="571.0" y="375.6666666666667"/>
      <point x="573.3333333333334" y="407.33333333333337"/>
      <point x="573.3333333333334" y="433.0" type="curve" smooth="yes"/>
      <point x="573.3333333333334" y="519.6666666666666"/>
      <point x="555.0" y="546.6666666666666"/>
      <point x="499.00000000000006" y="546.6666666666666" type="curve"/>
    </contour>
    <contour>
      <point x="79.66666666666669" y="456.0" type="line"/>
      <point x="79.66666666666669" y="327.0"/>
      <point x="79.66666666666669" y="198.33333333333331"/>
      <point x="79.66666666666669" y="69.33333333333333" type="curve" smooth="yes"/>
      <point x="79.66666666666669" y="6.666666666666665"/>
      <point x="109.00000000000001" y="-6.666666666666666"/>
      <point x="195.33333333333334" y="-6.666666666666666" type="curve" smooth="yes"/>
      <point x="223.0" y="-6.666666666666666"/>
      <point x="248.99999999999997" y="-4.666666666666667"/>
      <point x="271.33333333333337" y="-4.440892098500626e-16" type="curve"/>
      <point x="271.33333333333337" y="65.66666666666666"/>
      <point x="271.33333333333337" y="132.33333333333334"/>
      <point x="271.33333333333337" y="198.00000000000006" type="curve" smooth="yes"/>
      <point x="271.33333333333337" y="291.3333333333333"/>
      <point x="254.3333333333334" y="322.00000000000006"/>
      <point x="221.66666666666674" y="350.66666666666674" type="curve"/>
      <point x="221.66666666666674" y="456.0" type="line"/>
    </contour>
    <contour>
      <point x="568.6666666666666" y="176.99999999999997" type="curve"/>
      <point x="565.0" y="176.99999999999997" type="line"/>
      <point x="560.3333333333334" y="176.99999999999994"/>
      <point x="555.6666666666666" y="176.99999999999994"/>
      <point x="551.0" y="176.99999999999994" type="curve" smooth="yes"/>
      <point x="542.6666666666666" y="176.99999999999994"/>
      <point x="535.3333333333334" y="177.99999999999997"/>
      <point x="527.0" y="180.33333333333334" type="curve"/>
      <point x="526.0" y="186.0"/>
      <point x="525.6666666666666" y="193.33333333333331"/>
      <point x="525.6666666666666" y="201.0" type="curve" smooth="yes"/>
      <point x="525.6666666666666" y="222.00000000000003"/>
      <point x="525.6666666666666" y="241.99999999999997"/>
      <point x="525.6666666666666" y="263.0" type="curve" smooth="yes"/>
      <point x="525.6666666666666" y="294.6666666666667"/>
      <point x="517.6666666666666" y="330.6666666666667"/>
      <point x="479.66666666666663" y="350.6666666666667" type="curve"/>
      <point x="479.66666666666663" y="430.66666666666663" type="line"/>
      <point x="335.6666666666667" y="430.66666666666663" type="line"/>
      <point x="335.6666666666667" y="322.6666666666667"/>
      <point x="335.6666666666667" y="214.0"/>
      <point x="335.6666666666667" y="106.0" type="curve" smooth="yes"/>
      <point x="335.6666666666667" y="48.0"/>
      <point x="417.3333333333333" y="-10.0"/>
      <point x="510.6666666666667" y="-10.0" type="curve" smooth="yes"/>
      <point x="515.0" y="-10.0" type="line" smooth="yes"/>
      <point x="551.3333333333334" y="-10.0"/>
      <point x="568.6666666666666" y="53.0"/>
      <point x="568.6666666666666" y="163.0" type="curve" smooth="yes"/>
      <point x="568.6666666666666" y="167.33333333333331"/>
      <point x="568.6666666666666" y="172.66666666666666"/>
    </contour>
  </outline>
</glyph>
<glyph name="endash" format="2">
  <advance width="600.0"/>
  <unicode hex="2013"/>
  <outline>
    <contour>
      <point x="45.0" y="394.66666666666663" type="line"/>
      <point x="45.0" y="388.6666666666666"/>
      <point x="45.0" y="380.66666666666663"/>
      <point x="45.0" y="371.66666666666663" type="curve" smooth="yes"/>
      <point x="45.0" y="241.0"/>
      <point x="82.0" y="204.66666666666666"/>
      <point x="186.66666666666663" y="204.66666666666666" type="curve" smooth="yes"/>
      <point x="544.3333333333334" y="204.66666666666666" type="line"/>
      <point x="550.3333333333333" y="232.99999999999997"/>
      <point x="554.6666666666666" y="263.99999999999994"/>
      <point x="554.6666666666666" y="289.66666666666663" type="curve" smooth="yes"/>
      <point x="554.6666666666666" y="372.99999999999994"/>
      <point x="532.3333333333333" y="394.66666666666663"/>
      <point x="461.0" y="394.66666666666663" type="curve"/>
    </contour>
  </outline>
</glyph>
<glyph name="perthousand" format="2">
  <advance width="600.0"/>
  <unicode hex="2030"/>
  <outline>
    <contour>
      <point x="51.666666666666664" y="275.33333333333337" type="curve"/>
      <point x="265.0" y="307.3333333333333"/>
      <point x="421.0" y="347.0"/>
      <point x="542.0" y="424.33333333333337" type="curve" smooth="yes"/>
      <point x="558.0" y="435.00000000000006"/>
      <point x="577.0" y="458.00000000000006"/>
      <point x="577.0" y="510.66666666666674" type="curve" smooth="yes"/>
      <point x="577.0" y="565.6666666666666"/>
      <point x="569.0" y="621.0000000000001"/>
      <point x="534.3333333333334" y="663.0" type="curve"/>
      <point x="420.00000000000006" y="519.3333333333333"/>
      <point x="227.66666666666669" y="391.99999999999994"/>
      <point x="37.666666666666664" y="327.0" type="curve"/>
      <point x="30.0" y="316.6666666666667"/>
      <point x="28.333333333333332" y="310.6666666666667"/>
      <point x="28.333333333333332" y="298.0" type="curve" smooth="yes"/>
      <point x="28.333333333333332" y="281.0"/>
      <point x="37.0" y="273.66666666666663"/>
    </contour>
    <contour>
      <point x="6.333333333333336" y="562.0" type="curve" smooth="yes"/>
      <point x="6.333333333333336" y="557.0" type="line" smooth="yes"/>
      <point x="6.333333333333336" y="472.6666666666667"/>
      <point x="59.33333333333333" y="420.0"/>
      <point x="146.66666666666666" y="420.0" type="curve" smooth="yes"/>
      <point x="238.0" y="420.0"/>
      <point x="296.0" y="478.6666666666667"/>
      <point x="296.0" y="571.3333333333334" type="curve" smooth="yes"/>
      <point x="296.0" y="575.6666666666666" type="line" smooth="yes"/>
      <point x="296.0" y="653.3333333333334"/>
      <point x="234.66666666666666" y="710.0"/>
      <point x="153.66666666666666" y="710.0" type="curve" smooth="yes"/>
      <point x="65.33333333333331" y="710.0"/>
      <point x="6.333333333333336" y="650.3333333333334"/>
    </contour>
    <contour>
      <point x="129.99999999999997" y="550.0" type="curve" smooth="yes"/>
      <point x="129.99999999999997" y="554.3333333333333" type="line" smooth="yes"/>
      <point x="129.99999999999997" y="572.3333333333333"/>
      <point x="139.66666666666669" y="583.3333333333334"/>
      <point x="153.33333333333334" y="583.3333333333334" type="curve" smooth="yes"/>
      <point x="161.66666666666669" y="583.3333333333334"/>
      <point x="164.0" y="608.0"/>
      <point x="159.33333333333334" y="601.0" type="curve"/>
      <point x="165.00000000000003" y="596.6666666666666"/>
      <point x="166.66666666666669" y="588.0"/>
      <point x="166.66666666666669" y="577.6666666666666" type="curve" smooth="yes"/>
      <point x="166.66666666666669" y="574.0" type="line" smooth="yes"/>
      <point x="166.66666666666669" y="556.3333333333334"/>
      <point x="159.00000000000003" y="548.3333333333333"/>
      <point x="143.33333333333331" y="548.3333333333333" type="curve" smooth="yes"/>
      <point x="134.33333333333334" y="548.3333333333333"/>
      <point x="131.66666666666669" y="524.6666666666667"/>
      <point x="136.0" y="532.0" type="curve"/>
      <point x="131.33333333333331" y="535.6666666666666"/>
      <point x="129.99999999999997" y="542.3333333333334"/>
    </contour>
    <contour>
      <point x="106.33333333333334" y="132.0" type="curve" smooth="yes"/>
      <point x="106.33333333333334" y="127.0" type="line" smooth="yes"/>
      <point x="106.33333333333334" y="42.66666666666666"/>
      <point x="154.66666666666666" y="-10.0"/>
      <point x="233.33333333333334" y="-10.0" type="curve" smooth="yes"/>
      <point x="312.0" y="-10.0"/>
      <point x="362.0" y="48.666666666666664"/>
      <point x="362.0" y="141.33333333333334" type="curve" smooth="yes"/>
      <point x="362.0" y="145.66666666666666" type="line" smooth="yes"/>
      <point x="362.0" y="223.33333333333334"/>
      <point x="308.66666666666663" y="280.0"/>
      <point x="239.66666666666669" y="280.0" type="curve" smooth="yes"/>
      <point x="159.33333333333331" y="280.0"/>
      <point x="106.33333333333334" y="220.33333333333337"/>
    </contour>
    <contour>
      <point x="216.66666666666666" y="120.66666666666666" type="curve" smooth="yes"/>
      <point x="216.66666666666666" y="125.0" type="line" smooth="yes"/>
      <point x="216.66666666666666" y="142.99999999999997"/>
      <point x="226.33333333333334" y="154.00000000000006"/>
      <point x="240.0" y="154.00000000000006" type="curve" smooth="yes"/>
      <point x="248.33333333333331" y="154.00000000000006"/>
      <point x="250.66666666666669" y="178.66666666666669"/>
      <point x="246.0" y="171.66666666666669" type="curve"/>
      <point x="251.66666666666669" y="167.33333333333334"/>
      <point x="253.33333333333334" y="158.66666666666666"/>
      <point x="253.33333333333334" y="148.33333333333331" type="curve" smooth="yes"/>
      <point x="253.33333333333334" y="144.66666666666669" type="line" smooth="yes"/>
      <point x="253.33333333333334" y="127.0"/>
      <point x="245.6666666666667" y="118.99999999999999"/>
      <point x="230.0" y="118.99999999999999" type="curve" smooth="yes"/>
      <point x="221.0" y="118.99999999999999"/>
      <point x="218.33333333333331" y="95.33333333333333"/>
      <point x="222.66666666666669" y="102.66666666666666" type="curve"/>
      <point x="218.0" y="106.33333333333333"/>
      <point x="216.66666666666666" y="113.00000000000001"/>
    </contour>
    <contour>
      <point x="592.6666666666667" y="141.33333333333334" type="curve" smooth="yes"/>
      <point x="592.6666666666667" y="145.66666666666666" type="line" smooth="yes"/>
      <point x="592.6666666666667" y="223.33333333333334"/>
      <point x="537.3333333333334" y="280.0"/>
      <point x="464.33333333333337" y="280.0" type="curve" smooth="yes"/>
      <point x="386.0" y="280.0"/>
      <point x="333.66666666666674" y="220.33333333333337"/>
      <point x="333.66666666666674" y="132.0" type="curve" smooth="yes"/>
      <point x="333.66666666666674" y="127.0" type="line" smooth="yes"/>
      <point x="333.66666666666674" y="42.66666666666666"/>
      <point x="380.66666666666663" y="-10.0"/>
      <point x="457.33333333333337" y="-10.0" type="curve" smooth="yes"/>
      <point x="540.6666666666666" y="-10.0"/>
      <point x="592.6666666666667" y="48.666666666666664"/>
    </contour>
    <contour>
      <point x="443.3333333333333" y="120.66666666666666" type="curve" smooth="yes"/>
      <point x="443.3333333333333" y="125.0" type="line" smooth="yes"/>
      <point x="443.3333333333333" y="142.99999999999997"/>
      <point x="452.99999999999994" y="154.00000000000006"/>
      <point x="466.6666666666667" y="154.00000000000006" type="curve" smooth="yes"/>
      <point x="475.0" y="154.00000000000006"/>
      <point x="477.3333333333333" y="178.66666666666666"/>
      <point x="472.66666666666663" y="171.66666666666669" type="curve"/>
      <point x="478.33333333333326" y="167.33333333333331"/>
      <point x="480.0" y="158.66666666666669"/>
      <point x="480.0" y="148.33333333333331" type="curve" smooth="yes"/>
      <point x="480.0" y="144.66666666666669" type="line" smooth="yes"/>
      <point x="480.0" y="127.0"/>
      <point x="472.3333333333333" y="118.99999999999999"/>
      <point x="456.6666666666667" y="118.99999999999999" type="curve" smooth="yes"/>
      <point x="447.6666666666667" y="118.99999999999999"/>
      <point x="445.0" y="95.33333333333333"/>
      <point x="449.33333333333326" y="102.66666666666666" type="curve"/>
      <point x="444.66666666666663" y="106.33333333333333"/>
      <point x="443.3333333333333" y="113.00000000000001"/>
    </contour>
  </outline>
</glyph>
<glyph name="Euro" format="2">
  <advance width="600.0"/>
  <unicode hex="20AC"/>
  <outline>
    <contour>
      <point x="351.99999999999994" y="-20.0" type="curve" smooth="yes"/>
      <point x="438.0" y="-20.0"/>
      <point x="503.6666666666667" y="1.3333333333333337"/>
      <point x="535.6666666666666" y="33.666666666666664" type="curve" smooth="yes"/>
      <point x="562.0" y="60.333333333333336"/>
      <point x="573.9999999999999" y="104.66666666666666"/>
      <point x="573.9999999999999" y="164.0" type="curve" smooth="yes"/>
      <point x="573.9999999999999" y="191.66666666666663"/>
      <point x="571.0" y="213.66666666666666"/>
      <point x="562.9999999999999" y="233.3333333333333" type="curve"/>
      <point x="557.0" y="233.3333333333333" type="line"/>
      <point x="507.6666666666667" y="179.66666666666669"/>
      <point x="438.6666666666667" y="157.0"/>
      <point x="368.0" y="157.0" type="curve" smooth="yes"/>
      <point x="310.33333333333337" y="157.0"/>
      <point x="281.0" y="168.0"/>
      <point x="262.0" y="196.33333333333334" type="curve"/>
      <point x="256.3333333333333" y="223.66666666666669"/>
      <point x="251.33333333333331" y="267.0"/>
      <point x="251.33333333333331" y="317.3333333333333" type="curve" smooth="yes"/>
      <point x="251.33333333333331" y="338.0" type="line" smooth="yes"/>
      <point x="251.33333333333331" y="494.33333333333337"/>
      <point x="305.3333333333333" y="557.3333333333334"/>
      <point x="396.33333333333337" y="557.3333333333334" type="curve" smooth="yes"/>
      <point x="454.6666666666667" y="557.3333333333334"/>
      <point x="496.00000000000006" y="541.6666666666666"/>
      <point x="522.3333333333333" y="520.0" type="curve"/>
      <point x="528.3333333333334" y="520.0" type="line"/>
      <point x="551.9999999999999" y="541.6666666666666"/>
      <point x="561.9999999999999" y="567.3333333333333"/>
      <point x="561.9999999999999" y="600.6666666666667" type="curve" smooth="yes"/>
      <point x="561.9999999999999" y="640.3333333333334"/>
      <point x="555.0000000000001" y="658.9999999999999"/>
      <point x="534.3333333333333" y="680.0" type="curve" smooth="yes"/>
      <point x="513.3333333333333" y="702.3333333333333"/>
      <point x="459.6666666666667" y="720.0"/>
      <point x="387.0" y="720.0" type="curve" smooth="yes"/>
      <point x="195.33333333333334" y="720.0"/>
      <point x="65.33333333333333" y="573.0"/>
      <point x="65.33333333333333" y="300.6666666666667" type="curve" smooth="yes"/>
      <point x="65.33333333333333" y="286.6666666666667" type="line" smooth="yes"/>
      <point x="65.33333333333333" y="110.66666666666664"/>
      <point x="150.66666666666669" y="-20.0"/>
    </contour>
    <contour>
      <point x="13.333333333333334" y="491.3333333333333" type="line"/>
      <point x="10.666666666666668" y="481.66666666666663"/>
      <point x="9.333333333333336" y="465.33333333333337"/>
      <point x="9.333333333333336" y="448.3333333333333" type="curve" smooth="yes"/>
      <point x="9.333333333333336" y="402.0"/>
      <point x="25.666666666666668" y="382.3333333333333"/>
      <point x="68.33333333333333" y="382.3333333333333" type="curve" smooth="yes"/>
      <point x="480.6666666666667" y="382.3333333333333" type="line"/>
      <point x="482.0" y="393.33333333333337"/>
      <point x="483.33333333333337" y="404.66666666666663"/>
      <point x="483.33333333333337" y="415.0" type="curve" smooth="yes"/>
      <point x="483.33333333333337" y="465.66666666666663"/>
      <point x="463.33333333333337" y="491.3333333333333"/>
      <point x="409.00000000000006" y="491.3333333333333" type="curve"/>
    </contour>
    <contour>
      <point x="12.666666666666668" y="344.3333333333333" type="line"/>
      <point x="10.000000000000002" y="334.33333333333337"/>
      <point x="8.666666666666668" y="317.0"/>
      <point x="8.666666666666668" y="303.0" type="curve" smooth="yes"/>
      <point x="8.666666666666668" y="253.0"/>
      <point x="26.0" y="235.0"/>
      <point x="75.33333333333334" y="235.0" type="curve" smooth="yes"/>
      <point x="483.33333333333337" y="235.0" type="line"/>
      <point x="483.33333333333337" y="240.33333333333331"/>
      <point x="483.33333333333337" y="244.33333333333331"/>
      <point x="483.33333333333337" y="249.33333333333331" type="curve" smooth="yes"/>
      <point x="483.33333333333337" y="320.0"/>
      <point x="460.00000000000006" y="344.3333333333333"/>
      <point x="396.00000000000006" y="344.3333333333333" type="curve"/>
    </contour>
  </outline>
</glyph>
<glyph name="guarani" format="2">
  <advance width="600.0"/>
  <unicode hex="20B2"/>
  <outline>
    <contour>
      <point x="458.6666666666667" y="801.3333333333333" type="curve" smooth="yes"/>
      <point x="458.6666666666667" y="847.3333333333334"/>
      <point x="434.33333333333326" y="868.3333333333333"/>
      <point x="366.0" y="868.3333333333333" type="curve" smooth="yes"/>
      <point x="326.33333333333326" y="868.3333333333333"/>
      <point x="299.0" y="863.3333333333333"/>
      <point x="275.99999999999994" y="855.3333333333333" type="curve"/>
      <point x="281.0" y="825.3333333333333"/>
      <point x="282.99999999999994" y="793.6666666666667"/>
      <point x="282.99999999999994" y="759.6666666666667" type="curve" smooth="yes"/>
      <point x="282.99999999999994" y="718.6666666666666"/>
      <point x="280.0" y="671.0"/>
      <point x="273.99999999999994" y="623.0" type="curve"/>
      <point x="372.33333333333337" y="623.0" type="line"/>
      <point x="422.0" y="681.3333333333334"/>
      <point x="458.66666666666663" y="750.3333333333333"/>
    </contour>
    <contour>
      <point x="193.33333333333334" y="-119.33333333333333" type="curve" smooth="yes"/>
      <point x="193.33333333333334" y="-167.33333333333331"/>
      <point x="220.33333333333337" y="-188.33333333333334"/>
      <point x="283.0" y="-188.33333333333334" type="curve" smooth="yes"/>
      <point x="321.66666666666663" y="-188.33333333333334"/>
      <point x="355.3333333333333" y="-184.66666666666666"/>
      <point x="378.0" y="-178.33333333333331" type="curve"/>
      <point x="372.00000000000006" y="-148.33333333333331"/>
      <point x="370.0" y="-114.66666666666666"/>
      <point x="370.0" y="-83.66666666666666" type="curve" smooth="yes"/>
      <point x="370.0" y="-41.666666666666664"/>
      <point x="372.0" y="16.000000000000007"/>
      <point x="378.00000000000006" y="73.0" type="curve"/>
      <point x="285.3333333333333" y="73.0" type="line"/>
      <point x="216.66666666666666" y="-11.666666666666671"/>
      <point x="193.33333333333337" y="-73.0"/>
    </contour>
    <contour>
      <point x="315.3333333333333" y="375.00000000000006" type="line"/>
      <point x="311.99999999999994" y="363.00000000000006"/>
      <point x="310.3333333333333" y="348.33333333333326"/>
      <point x="310.3333333333333" y="333.3333333333333" type="curve" smooth="yes"/>
      <point x="310.3333333333333" y="257.0"/>
      <point x="349.66666666666663" y="226.0"/>
      <point x="466.99999999999994" y="226.0" type="curve" smooth="yes"/>
      <point x="580.3333333333334" y="226.0" type="line"/>
      <point x="580.3333333333334" y="241.6666666666667" type="line" smooth="yes"/>
      <point x="580.3333333333334" y="345.33333333333337"/>
      <point x="559.0" y="375.00000000000006"/>
      <point x="479.0" y="375.00000000000006" type="curve"/>
    </contour>
    <contour>
      <point x="345.6666666666667" y="720.0" type="curve" smooth="yes"/>
      <point x="153.33333333333331" y="720.0"/>
      <point x="30.666666666666675" y="558.9999999999999"/>
      <point x="30.666666666666675" y="300.6666666666667" type="curve" smooth="yes"/>
      <point x="30.666666666666675" y="286.66666666666674" type="line" smooth="yes"/>
      <point x="30.666666666666675" y="99.66666666666667"/>
      <point x="135.33333333333334" y="-20.0"/>
      <point x="331.3333333333333" y="-20.0" type="curve"/>
      <point x="417.0" y="-20.0"/>
      <point x="482.3333333333333" y="3.333333333333334"/>
      <point x="521.3333333333333" y="42.33333333333334" type="curve" smooth="yes"/>
      <point x="546.3333333333333" y="66.66666666666666"/>
      <point x="563.3333333333334" y="101.33333333333331"/>
      <point x="563.3333333333334" y="142.0" type="curve" smooth="yes"/>
      <point x="563.3333333333334" y="174.33333333333334"/>
      <point x="551.6666666666667" y="199.33333333333331"/>
      <point x="532.6666666666667" y="219.99999999999997" type="curve"/>
      <point x="532.6666666666665" y="270.33333333333337" type="line"/>
      <point x="426.33333333333337" y="270.33333333333337" type="line"/>
      <point x="428.0" y="260.3333333333333"/>
      <point x="429.0" y="246.0"/>
      <point x="429.0" y="232.33333333333331" type="curve" smooth="yes"/>
      <point x="429.0" y="187.0"/>
      <point x="395.0" y="156.66666666666666"/>
      <point x="341.6666666666667" y="156.66666666666666" type="curve" smooth="yes"/>
      <point x="298.66666666666663" y="156.66666666666666"/>
      <point x="267.3333333333333" y="165.33333333333331"/>
      <point x="243.66666666666666" y="186.0" type="curve" smooth="yes"/>
      <point x="239.33333333333334" y="226.66666666666669"/>
      <point x="237.33333333333334" y="264.0"/>
      <point x="237.33333333333334" y="304.33333333333326" type="curve" smooth="yes"/>
      <point x="237.33333333333334" y="315.66666666666663" type="line" smooth="yes"/>
      <point x="237.33333333333334" y="480.0"/>
      <point x="283.33333333333337" y="548.0000000000001"/>
      <point x="348.3333333333333" y="548.0000000000001" type="curve" smooth="yes"/>
      <point x="362.0" y="548.0000000000001"/>
      <point x="376.00000000000006" y="546.6666666666666"/>
      <point x="387.6666666666667" y="542.3333333333333" type="curve"/>
      <point x="374.0" y="575.6666666666666" type="line"/>
      <point x="360.0" y="531.6666666666667"/>
      <point x="357.6666666666667" y="513.6666666666666"/>
      <point x="357.6666666666667" y="496.6666666666667" type="curve" smooth="yes"/>
      <point x="357.6666666666667" y="449.33333333333337"/>
      <point x="395.6666666666667" y="429.6666666666667"/>
      <point x="471.6666666666667" y="429.6666666666667" type="curve" smooth="yes"/>
      <point x="506.3333333333333" y="429.6666666666667"/>
      <point x="536.0" y="435.6666666666667"/>
      <point x="558.3333333333334" y="442.3333333333333" type="curve"/>
      <point x="558.3333333333334" y="460.33333333333337"/>
      <point x="558.3333333333334" y="478.6666666666666"/>
      <point x="558.3333333333334" y="497.6666666666667" type="curve"/>
      <point x="558.3333333333334" y="567.3333333333333"/>
      <point x="541.0" y="610.6666666666666"/>
      <point x="498.0" y="653.6666666666665" type="curve" smooth="yes"/>
      <point x="452.0" y="699.6666666666666"/>
      <point x="408.6666666666667" y="720.0"/>
    </contour>
  </outline>
</glyph>
<glyph name="ruble" format="2">
  <advance width="600.0"/>
  <unicode hex="20BD"/>
  <outline>
    <contour>
      <point x="35.66666666666667" y="693.6666666666667" type="curve"/>
      <point x="28.000000000000007" y="667.3333333333334"/>
      <point x="24.000000000000007" y="638.6666666666666"/>
      <point x="24.000000000000007" y="607.0000000000001" type="curve" smooth="yes"/>
      <point x="24.000000000000007" y="550.3333333333334"/>
      <point x="37.333333333333336" y="527.6666666666667"/>
      <point x="75.66666666666669" y="527.6666666666667" type="curve" smooth="yes"/>
      <point x="122.33333333333334" y="527.6666666666667"/>
      <point x="169.66666666666666" y="543.3333333333334"/>
      <point x="274.0" y="543.3333333333334" type="curve" smooth="yes"/>
      <point x="309.6666666666667" y="543.3333333333334"/>
      <point x="335.0" y="540.0"/>
      <point x="356.33333333333337" y="533.3333333333334" type="curve"/>
      <point x="361.3333333333333" y="519.6666666666666"/>
      <point x="364.00000000000006" y="506.00000000000006"/>
      <point x="364.00000000000006" y="489.6666666666667" type="curve" smooth="yes"/>
      <point x="364.00000000000006" y="482.66666666666663" type="line" smooth="yes"/>
      <point x="364.00000000000006" y="426.3333333333333"/>
      <point x="334.00000000000006" y="399.3333333333333"/>
      <point x="249.0" y="399.3333333333333" type="curve" smooth="yes"/>
      <point x="177.33333333333337" y="399.3333333333333"/>
      <point x="102.0" y="404.3333333333333"/>
      <point x="25.0" y="416.6666666666667" type="curve"/>
      <point x="18.333333333333332" y="393.0"/>
      <point x="15.333333333333332" y="373.6666666666667"/>
      <point x="15.333333333333332" y="345.00000000000006" type="curve" smooth="yes"/>
      <point x="15.333333333333332" y="298.6666666666667"/>
      <point x="26.333333333333332" y="275.33333333333337"/>
      <point x="55.33333333333333" y="268.00000000000006" type="curve" smooth="yes"/>
      <point x="104.00000000000001" y="256.3333333333333"/>
      <point x="177.0" y="252.0"/>
      <point x="273.6666666666667" y="252.0" type="curve" smooth="yes"/>
      <point x="469.99999999999994" y="252.0"/>
      <point x="570.0" y="315.33333333333337"/>
      <point x="570.0" y="474.66666666666663" type="curve" smooth="yes"/>
      <point x="570.0" y="484.3333333333333" type="line" smooth="yes"/>
      <point x="570.0" y="624.6666666666666"/>
      <point x="475.6666666666667" y="713.3333333333334"/>
      <point x="287.0" y="713.3333333333334" type="curve" smooth="yes"/>
      <point x="180.33333333333334" y="713.3333333333334"/>
      <point x="104.0" y="706.0"/>
    </contour>
    <contour>
      <point x="214.66666666666666" y="657.3333333333334" type="line"/>
      <point x="68.33333333333333" y="657.3333333333334" type="line"/>
      <point x="68.33333333333333" y="509.33333333333337"/>
      <point x="68.33333333333333" y="270.66666666666663"/>
      <point x="68.33333333333333" y="105.0" type="curve" smooth="yes"/>
      <point x="68.33333333333333" y="26.0"/>
      <point x="95.66666666666666" y="-8.666666666666666"/>
      <point x="187.66666666666666" y="-8.666666666666666" type="curve" smooth="yes"/>
      <point x="217.66666666666666" y="-8.666666666666666"/>
      <point x="243.33333333333334" y="-6.0"/>
      <point x="269.99999999999994" y="0.0" type="curve"/>
      <point x="261.66666666666663" y="35.666666666666664"/>
      <point x="258.3333333333333" y="77.0"/>
      <point x="258.3333333333333" y="125.33333333333333" type="curve" smooth="yes"/>
      <point x="258.3333333333333" y="223.66666666666669"/>
      <point x="258.3333333333333" y="362.99999999999994"/>
      <point x="258.3333333333333" y="434.6666666666667" type="curve" smooth="yes"/>
      <point x="258.3333333333333" y="483.6666666666667"/>
      <point x="250.99999999999997" y="510.6666666666666"/>
      <point x="214.66666666666666" y="534.6666666666667" type="curve"/>
    </contour>
    <contour>
      <point x="14.333333333333334" y="215.66666666666669" type="line"/>
      <point x="10.333333333333334" y="198.66666666666669"/>
      <point x="9.333333333333334" y="178.00000000000003"/>
      <point x="9.333333333333334" y="158.00000000000003" type="curve" smooth="yes"/>
      <point x="9.333333333333334" y="110.0"/>
      <point x="28.333333333333336" y="92.33333333333334"/>
      <point x="65.33333333333334" y="92.33333333333334" type="curve" smooth="yes"/>
      <point x="456.0" y="92.33333333333334" type="line"/>
      <point x="459.0" y="104.33333333333333"/>
      <point x="460.0" y="123.0"/>
      <point x="460.0" y="138.00000000000003" type="curve" smooth="yes"/>
      <point x="460.0" y="186.00000000000003"/>
      <point x="437.0" y="215.66666666666669"/>
      <point x="361.0" y="215.66666666666669" type="curve"/>
    </contour>
  </outline>
</glyph>
<glyph name="trademark" format="2">
  <advance width="600.0"/>
  <unicode hex="2122"/>
  <outline>
    <contour>
      <point x="15.0" y="700.0" type="line"/>
      <point x="12.0" y="687.0"/>
      <point x="10.0" y="677.0"/>
      <point x="10.0" y="661.0" type="curve" smooth="yes"/>
      <point x="10.0" y="612.3333333333333"/>
      <point x="25.333333333333332" y="590.0"/>
      <point x="64.0" y="590.0" type="curve" smooth="yes"/>
      <point x="244.99999999999997" y="590.0" type="line"/>
      <point x="247.99999999999997" y="599.0"/>
      <point x="250.0" y="615.0"/>
      <point x="250.0" y="634.3333333333333" type="curve" smooth="yes"/>
      <point x="250.0" y="670.6666666666666"/>
      <point x="239.99999999999997" y="700.0"/>
      <point x="202.0" y="700.0" type="curve"/>
    </contour>
    <contour>
      <point x="193.0" y="350.3333333333333" type="curve"/>
      <point x="188.0" y="366.33333333333337"/>
      <point x="186.0" y="390.0"/>
      <point x="186.0" y="427.0" type="curve" smooth="yes"/>
      <point x="186.0" y="453.66666666666663"/>
      <point x="186.0" y="480.99999999999994"/>
      <point x="186.0" y="507.66666666666674" type="curve"/>
      <point x="186.0" y="545.0"/>
      <point x="177.66666666666669" y="568.3333333333333"/>
      <point x="153.33333333333331" y="584.0" type="curve"/>
      <point x="153.33333333333334" y="634.3333333333334" type="line"/>
      <point x="74.0" y="634.3333333333334" type="line"/>
      <point x="74.0" y="557.3333333333334"/>
      <point x="74.0" y="480.0"/>
      <point x="74.0" y="403.0" type="curve" smooth="yes"/>
      <point x="74.0" y="359.0"/>
      <point x="89.0" y="345.0"/>
      <point x="144.0" y="345.0" type="curve" smooth="yes"/>
      <point x="160.0" y="345.0"/>
      <point x="177.0" y="347.0"/>
    </contour>
    <contour>
      <point x="394.0" y="350.0" type="curve"/>
      <point x="394.0" y="362.99999999999994"/>
      <point x="394.0" y="375.0"/>
      <point x="394.0" y="388.00000000000006" type="curve" smooth="yes"/>
      <point x="394.0" y="444.0"/>
      <point x="360.6666666666667" y="466.99999999999994"/>
      <point x="350.66666666666663" y="616.3333333333335" type="curve"/>
      <point x="335.0" y="586.3333333333334" type="line"/>
      <point x="377.6666666666667" y="586.3333333333334" type="line"/>
      <point x="348.3333333333333" y="614.3333333333333" type="line"/>
      <point x="382.6666666666667" y="516.6666666666667"/>
      <point x="415.66666666666663" y="459.3333333333333"/>
      <point x="428.0" y="446.99999999999994" type="curve" smooth="yes"/>
      <point x="429.99999999999994" y="444.99999999999994"/>
      <point x="432.0" y="444.0"/>
      <point x="435.0" y="444.0" type="curve" smooth="yes"/>
      <point x="437.0" y="444.0"/>
      <point x="438.0" y="444.0"/>
      <point x="440.0" y="444.0" type="curve"/>
      <point x="451.00000000000006" y="455.6666666666667"/>
      <point x="489.33333333333337" y="515.0"/>
      <point x="521.3333333333334" y="611.3333333333334" type="curve"/>
      <point x="485.0" y="583.0" type="line"/>
      <point x="544.3333333333334" y="583.0" type="line"/>
      <point x="520.6666666666667" y="613.0" type="line"/>
      <point x="506.6666666666667" y="465.33333333333326"/>
      <point x="476.0" y="435.33333333333337"/>
      <point x="476.0" y="397.00000000000006" type="curve" smooth="yes"/>
      <point x="476.0" y="394.0"/>
      <point x="476.0" y="392.0"/>
      <point x="476.0" y="389.0" type="curve" smooth="yes"/>
      <point x="476.0" y="357.0"/>
      <point x="486.99999999999994" y="345.0"/>
      <point x="540.0" y="345.0" type="curve" smooth="yes"/>
      <point x="557.0" y="345.0"/>
      <point x="573.0" y="347.0"/>
      <point x="588.0" y="350.0" type="curve"/>
      <point x="584.0" y="369.0"/>
      <point x="582.0" y="391.0"/>
      <point x="582.0" y="420.0" type="curve" smooth="yes"/>
      <point x="582.0" y="504.00000000000006"/>
      <point x="582.0" y="588.0"/>
      <point x="582.0" y="672.0" type="curve" smooth="yes"/>
      <point x="582.0" y="694.0"/>
      <point x="560.0" y="702.0"/>
      <point x="520.6666666666666" y="702.0" type="curve"/>
      <point x="503.0" y="702.0"/>
      <point x="488.0" y="701.0"/>
      <point x="472.0" y="698.0" type="curve"/>
      <point x="469.3333333333333" y="651.9999999999999"/>
      <point x="454.6666666666667" y="607.6666666666667"/>
      <point x="423.66666666666663" y="551.0" type="curve"/>
      <point x="456.66666666666663" y="577.0" type="line"/>
      <point x="409.3333333333333" y="577.0" type="line"/>
      <point x="445.33333333333337" y="549.9999999999999" type="line"/>
      <point x="418.3333333333333" y="604.0"/>
      <point x="405.0" y="641.0"/>
      <point x="400.0" y="678.0" type="curve" smooth="yes"/>
      <point x="398.0" y="694.0"/>
      <point x="374.99999999999994" y="702.0"/>
      <point x="330.0" y="702.0" type="curve" smooth="yes"/>
      <point x="313.00000000000006" y="702.0"/>
      <point x="297.0" y="700.0"/>
      <point x="282.0" y="697.0" type="curve"/>
      <point x="286.0" y="677.9999999999999"/>
      <point x="288.0" y="656.0000000000001"/>
      <point x="288.0" y="627.0" type="curve" smooth="yes"/>
      <point x="288.0" y="550.0000000000001"/>
      <point x="288.0" y="472.0"/>
      <point x="288.0" y="395.0" type="curve" smooth="yes"/>
      <point x="288.0" y="356.0"/>
      <point x="306.0" y="347.0"/>
      <point x="354.0" y="347.0" type="curve" smooth="yes"/>
      <point x="372.0" y="347.0"/>
      <point x="379.0" y="347.0"/>
    </contour>
  </outline>
</glyph>
<glyph name="arrowupdown" format="2">
  <advance width="600.0"/>
  <unicode hex="2195"/>
  <outline>
    <contour>
      <point x="417.66666666666663" y="666.6666666666667" type="curve" smooth="yes"/>
      <point x="374.66666666666663" y="702.3333333333334"/>
      <point x="347.0" y="710.0"/>
      <point x="305.0" y="710.0" type="curve" smooth="yes"/>
      <point x="282.0" y="710.0"/>
      <point x="258.3333333333333" y="710.0"/>
      <point x="235.33333333333337" y="710.0" type="curve"/>
      <point x="151.00000000000003" y="653.3333333333335"/>
      <point x="82.66666666666666" y="582.0"/>
      <point x="41.666666666666664" y="524.0" type="curve" smooth="yes"/>
      <point x="12.666666666666673" y="482.6666666666667"/>
      <point x="4.66666666666667" y="460.0"/>
      <point x="4.66666666666667" y="435.0" type="curve" smooth="yes"/>
      <point x="4.66666666666667" y="400.00000000000006"/>
      <point x="32.0" y="384.6666666666667"/>
      <point x="86.33333333333331" y="384.6666666666667" type="curve" smooth="yes"/>
      <point x="119.33333333333331" y="384.6666666666667"/>
      <point x="139.66666666666666" y="389.6666666666667"/>
      <point x="158.33333333333331" y="396.33333333333337" type="curve"/>
      <point x="193.0" y="477.00000000000006"/>
      <point x="239.66666666666669" y="536.0"/>
      <point x="317.3333333333333" y="602.0" type="curve"/>
      <point x="271.00000000000006" y="583.6666666666667" type="line"/>
      <point x="331.0" y="583.6666666666667" type="line"/>
      <point x="284.66666666666663" y="602.0" type="line"/>
      <point x="362.33333333333337" y="536.0"/>
      <point x="405.6666666666667" y="480.3333333333334"/>
      <point x="440.33333333333337" y="396.33333333333337" type="curve"/>
      <point x="459.00000000000006" y="389.6666666666667"/>
      <point x="490.6666666666667" y="384.6666666666667"/>
      <point x="521.6666666666667" y="384.6666666666667" type="curve" smooth="yes"/>
      <point x="566.3333333333334" y="384.6666666666667"/>
      <point x="596.0" y="396.6666666666667"/>
      <point x="596.0" y="427.6666666666667" type="curve" smooth="yes"/>
      <point x="596.0" y="453.33333333333326"/>
      <point x="586.6666666666666" y="473.33333333333337"/>
      <point x="567.0" y="503.3333333333333" type="curve" smooth="yes"/>
      <point x="531.9999999999999" y="558.0"/>
      <point x="486.99999999999994" y="609.3333333333334"/>
    </contour>
    <contour>
      <point x="222.00000000000003" y="346.3333333333333" type="curve" smooth="yes"/>
      <point x="222.00000000000003" y="336.66666666666663" type="line" smooth="yes"/>
      <point x="222.00000000000003" y="289.3333333333333"/>
      <point x="231.66666666666666" y="250.0"/>
      <point x="252.66666666666669" y="205.66666666666666" type="curve"/>
      <point x="264.6666666666667" y="180.0"/>
      <point x="275.0" y="169.33333333333331"/>
      <point x="297.6666666666667" y="169.33333333333331" type="curve" smooth="yes"/>
      <point x="313.0" y="169.33333333333331"/>
      <point x="324.6666666666667" y="171.0"/>
      <point x="333.33333333333337" y="174.66666666666669" type="curve" smooth="yes"/>
      <point x="363.3333333333333" y="226.33333333333331"/>
      <point x="378.66666666666663" y="292.0"/>
      <point x="378.66666666666663" y="336.6666666666667" type="curve" smooth="yes"/>
      <point x="378.66666666666663" y="346.33333333333326" type="line" smooth="yes"/>
      <point x="378.66666666666663" y="391.0"/>
      <point x="369.00000000000006" y="428.66666666666674"/>
      <point x="346.66666666666663" y="479.0" type="curve"/>
      <point x="336.3333333333333" y="502.99999999999994"/>
      <point x="321.6666666666667" y="510.99999999999994"/>
      <point x="303.0" y="510.99999999999994" type="curve" smooth="yes"/>
      <point x="287.66666666666663" y="510.99999999999994"/>
      <point x="276.0" y="509.3333333333334"/>
      <point x="267.3333333333333" y="505.6666666666667" type="curve" smooth="yes"/>
      <point x="233.33333333333337" y="448.3333333333334"/>
      <point x="222.00000000000003" y="390.66666666666663"/>
    </contour>
    <contour>
      <point x="183.00000000000003" y="20.333333333333332" type="curve" smooth="yes"/>
      <point x="226.0" y="-15.666666666666664"/>
      <point x="253.66666666666666" y="-23.0"/>
      <point x="295.66666666666663" y="-23.0" type="curve" smooth="yes"/>
      <point x="318.6666666666667" y="-23.0"/>
      <point x="342.3333333333333" y="-23.0"/>
      <point x="365.3333333333333" y="-23.0" type="curve"/>
      <point x="449.3333333333333" y="33.0"/>
      <point x="518.0" y="102.33333333333333"/>
      <point x="558.0" y="160.99999999999997" type="curve" smooth="yes"/>
      <point x="584.9999999999999" y="200.66666666666669"/>
      <point x="596.0" y="225.66666666666666"/>
      <point x="596.0" y="253.66666666666666" type="curve" smooth="yes"/>
      <point x="596.0" y="286.66666666666663"/>
      <point x="569.6666666666666" y="302.3333333333333"/>
      <point x="514.3333333333334" y="302.3333333333333" type="curve" smooth="yes"/>
      <point x="481.33333333333337" y="302.3333333333333"/>
      <point x="461.0000000000001" y="297.3333333333333"/>
      <point x="442.33333333333337" y="290.6666666666667" type="curve"/>
      <point x="405.66666666666663" y="206.33333333333334"/>
      <point x="361.0" y="150.99999999999997"/>
      <point x="283.3333333333333" y="84.99999999999999" type="curve"/>
      <point x="329.66666666666663" y="103.33333333333333" type="line"/>
      <point x="269.6666666666667" y="103.33333333333333" type="line"/>
      <point x="316.0" y="84.99999999999999" type="line"/>
      <point x="237.33333333333331" y="151.0"/>
      <point x="193.66666666666669" y="207.0"/>
      <point x="157.0" y="290.6666666666667" type="curve"/>
      <point x="138.33333333333334" y="297.3333333333333"/>
      <point x="106.66666666666666" y="302.3333333333333"/>
      <point x="75.66666666666666" y="302.3333333333333" type="curve" smooth="yes"/>
      <point x="32.33333333333333" y="302.3333333333333"/>
      <point x="4.66666666666667" y="289.6666666666667"/>
      <point x="4.66666666666667" y="261.0" type="curve" smooth="yes"/>
      <point x="4.66666666666667" y="236.33333333333334"/>
      <point x="13.999999999999998" y="214.99999999999997"/>
      <point x="34.66666666666667" y="183.66666666666669" type="curve" smooth="yes"/>
      <point x="69.33333333333334" y="129.66666666666669"/>
      <point x="115.66666666666667" y="76.33333333333331"/>
    </contour>
  </outline>
</glyph>
<glyph name="greaterequal" format="2">
  <advance width="600.0"/>
  <unicode hex="2265"/>
  <outline>
    <contour>
      <point x="58.0" y="181.66666666666666" type="line"/>
      <point x="58.0" y="175.66666666666669"/>
      <point x="58.0" y="169.66666666666669"/>
      <point x="58.0" y="162.66666666666666" type="curve" smooth="yes"/>
      <point x="58.0" y="55.66666666666667"/>
      <point x="86.0" y="15.000000000000012"/>
      <point x="165.0" y="15.000000000000012" type="curve" smooth="yes"/>
      <point x="528.6666666666666" y="15.000000000000012" type="line"/>
      <point x="536.6666666666666" y="48.00000000000001"/>
      <point x="543.0" y="91.66666666666666"/>
      <point x="543.0" y="124.66666666666667" type="curve" smooth="yes"/>
      <point x="543.0" y="167.66666666666666"/>
      <point x="526.0" y="181.66666666666666"/>
      <point x="470.0" y="181.66666666666666" type="curve" smooth="yes"/>
    </contour>
    <contour>
      <point x="540.0" y="343.6666666666667" type="curve"/>
      <point x="540.0" y="396.3333333333333"/>
      <point x="540.0" y="448.66666666666663"/>
      <point x="540.0" y="501.33333333333337" type="curve" smooth="yes"/>
      <point x="540.0" y="529.3333333333334"/>
      <point x="532.0" y="552.3333333333333"/>
      <point x="489.0" y="573.3333333333334" type="curve" smooth="yes"/>
      <point x="396.3333333333333" y="615.9999999999999"/>
      <point x="252.99999999999997" y="654.6666666666667"/>
      <point x="72.0" y="671.6666666666667" type="curve"/>
      <point x="60.33333333333333" y="637.3333333333334"/>
      <point x="55.0" y="591.0"/>
      <point x="55.0" y="555.6666666666666" type="curve" smooth="yes"/>
      <point x="55.0" y="506.33333333333337"/>
      <point x="76.66666666666666" y="489.66666666666663"/>
      <point x="136.33333333333334" y="485.3333333333333" type="curve"/>
      <point x="255.66666666666669" y="475.0"/>
      <point x="290.0" y="468.99999999999994"/>
      <point x="376.66666666666674" y="443.3333333333333" type="curve"/>
      <point x="352.6666666666667" y="480.3333333333333" type="line"/>
      <point x="352.6666666666667" y="414.3333333333333" type="line"/>
      <point x="375.6666666666667" y="452.6666666666667" type="line"/>
      <point x="283.0" y="418.66666666666663"/>
      <point x="232.0" y="408.3333333333333"/>
      <point x="67.0" y="389.99999999999994" type="curve"/>
      <point x="67.0" y="381.33333333333326"/>
      <point x="67.0" y="372.3333333333333"/>
      <point x="67.0" y="363.6666666666667" type="curve" smooth="yes"/>
      <point x="67.0" y="278.0"/>
      <point x="89.66666666666667" y="219.66666666666669"/>
      <point x="141.33333333333331" y="219.66666666666669" type="curve" smooth="yes"/>
      <point x="165.33333333333331" y="219.66666666666669"/>
      <point x="206.66666666666666" y="222.66666666666669"/>
      <point x="273.0" y="236.0" type="curve" smooth="yes"/>
      <point x="374.6666666666667" y="258.3333333333333"/>
      <point x="473.66666666666663" y="293.3333333333333"/>
    </contour>
  </outline>
</glyph>
<glyph name="f_f" format="2">
  <advance width="1200.0"/>
  <unicode hex="FB00"/>
  <outline>
    <contour>
      <point x="388.0" y="95.66666666666666" type="curve"/>
      <point x="388.0" y="207.66666666666666"/>
      <point x="388.0" y="426.0"/>
      <point x="388.0" y="498.6666666666667" type="curve" smooth="yes"/>
      <point x="377.0" y="526.6666666666667"/>
      <point x="369.66666666666674" y="556.6666666666666"/>
      <point x="368.3333333333333" y="584.6666666666666" type="curve" smooth="yes"/>
      <point x="389.66666666666663" y="588.3333333333334"/>
      <point x="420.3333333333334" y="589.3333333333334"/>
      <point x="457.0" y="589.3333333333334" type="curve" smooth="yes"/>
      <point x="525.6666666666665" y="589.3333333333334"/>
      <point x="585.0" y="581.3333333333333"/>
      <point x="639.0" y="567.0" type="curve"/>
      <point x="645.0000000000001" y="567.0" type="line"/>
      <point x="650.6666666666667" y="593.3333333333334"/>
      <point x="652.0000000000001" y="613.3333333333335"/>
      <point x="652.0000000000001" y="641.3333333333334" type="curve"/>
      <point x="652.0000000000001" y="687.3333333333333"/>
      <point x="645.3333333333335" y="719.0"/>
      <point x="625.3333333333334" y="739.0" type="curve" smooth="yes"/>
      <point x="606.0" y="758.3333333333333"/>
      <point x="562.6666666666666" y="770.0"/>
      <point x="480.99999999999994" y="770.0" type="curve" smooth="yes"/>
      <point x="263.66666666666663" y="770.0"/>
      <point x="191.33333333333334" y="660.3333333333334"/>
      <point x="191.33333333333334" y="560.0000000000001" type="curve" smooth="yes"/>
      <point x="191.33333333333334" y="414.6666666666667"/>
      <point x="191.33333333333334" y="223.33333333333331"/>
      <point x="191.33333333333334" y="116.0" type="curve"/>
      <point x="191.33333333333334" y="69.33333333333334"/>
      <point x="185.66666666666669" y="36.666666666666664"/>
      <point x="172.00000000000006" y="0.0" type="curve"/>
      <point x="197.6666666666667" y="-6.333333333333333"/>
      <point x="226.00000000000003" y="-10.0"/>
      <point x="255.00000000000003" y="-10.0" type="curve"/>
      <point x="353.66666666666663" y="-10.0"/>
      <point x="388.0" y="28.0"/>
    </contour>
    <contour>
      <point x="1158.3333333333333" y="326.6666666666667" type="line"/>
      <point x="1163.0000000000002" y="345.6666666666667"/>
      <point x="1165.3333333333335" y="370.6666666666667"/>
      <point x="1165.3333333333335" y="396.33333333333337" type="curve" smooth="yes"/>
      <point x="1165.3333333333335" y="482.99999999999994"/>
      <point x="1146.0" y="500.0"/>
      <point x="1082.3333333333335" y="500.0" type="curve"/>
      <point x="27.66666666666667" y="500.0" type="line"/>
      <point x="27.66666666666667" y="494.0"/>
      <point x="27.66666666666667" y="488.0"/>
      <point x="27.66666666666667" y="465.6666666666667" type="curve" smooth="yes"/>
      <point x="27.66666666666667" y="349.6666666666667"/>
      <point x="61.66666666666668" y="326.6666666666667"/>
      <point x="205.33333333333334" y="326.6666666666667" type="curve" smooth="yes"/>
    </contour>
    <contour>
      <point x="918.3333333333333" y="95.66666666666666" type="curve"/>
      <point x="918.3333333333333" y="207.66666666666666"/>
      <point x="918.3333333333333" y="426.0"/>
      <point x="918.3333333333333" y="498.6666666666667" type="curve" smooth="yes"/>
      <point x="907.3333333333333" y="526.6666666666667"/>
      <point x="899.9999999999999" y="556.6666666666667"/>
      <point x="898.6666666666667" y="584.6666666666667" type="curve" smooth="yes"/>
      <point x="920.0" y="588.3333333333334"/>
      <point x="954.0" y="589.3333333333334"/>
      <point x="994.6666666666665" y="589.3333333333334" type="curve" smooth="yes"/>
      <point x="1056.666666666667" y="589.3333333333334"/>
      <point x="1114.3333333333335" y="582.9999999999998"/>
      <point x="1172.0000000000002" y="567.0" type="curve"/>
      <point x="1178.0" y="567.0" type="line"/>
      <point x="1183.6666666666667" y="593.3333333333334"/>
      <point x="1185.0" y="613.3333333333335"/>
      <point x="1185.0" y="641.3333333333334" type="curve"/>
      <point x="1185.0" y="687.3333333333333"/>
      <point x="1178.3333333333333" y="719.0000000000001"/>
      <point x="1158.3333333333333" y="739.0" type="curve" smooth="yes"/>
      <point x="1139.0" y="758.3333333333333"/>
      <point x="1097.333333333333" y="770.0"/>
      <point x="1014.3333333333333" y="770.0" type="curve" smooth="yes"/>
      <point x="801.0000000000001" y="770.0"/>
      <point x="721.6666666666666" y="663.0000000000001"/>
      <point x="721.6666666666666" y="560.0" type="curve" smooth="yes"/>
      <point x="721.6666666666666" y="414.6666666666667"/>
      <point x="721.6666666666666" y="223.33333333333331"/>
      <point x="721.6666666666666" y="116.0" type="curve"/>
      <point x="721.6666666666666" y="69.33333333333334"/>
      <point x="715.9999999999999" y="36.666666666666664"/>
      <point x="702.3333333333334" y="0.0" type="curve"/>
      <point x="727.9999999999999" y="-6.333333333333333"/>
      <point x="756.3333333333333" y="-10.0"/>
      <point x="785.3333333333333" y="-10.0" type="curve"/>
      <point x="883.9999999999999" y="-10.0"/>
      <point x="918.3333333333333" y="28.0"/>
    </contour>
  </outline>
</glyph>
<glyph name="b.italic" format="2">
  <advance width="600.0"/>
  <outline>
    <contour>
      <point x="258.3333333333333" y="121.33333333333331" type="line"/>
      <point x="235.66666666666666" y="224.66666666666666"/>
      <point x="245.0" y="291.33333333333337"/>
      <point x="245.0" y="583.6666666666667" type="curve"/>
      <point x="245.0" y="716.0"/>
      <point x="190.33333333333331" y="758.6666666666666"/>
      <point x="90.0" y="758.6666666666666" type="curve"/>
      <point x="71.66666666666667" y="758.6666666666666"/>
      <point x="44.00000000000001" y="755.0"/>
      <point x="27.000000000000004" y="750.0" type="curve"/>
      <point x="41.00000000000001" y="712.6666666666666"/>
      <point x="45.00000000000001" y="666.0"/>
      <point x="45.00000000000001" y="620.3333333333334" type="curve"/>
      <point x="45.00000000000001" y="425.0"/>
      <point x="45.00000000000001" y="347.33333333333337"/>
      <point x="45.00000000000001" y="233.99999999999997" type="curve" smooth="yes"/>
      <point x="45.00000000000001" y="74.33333333333333"/>
      <point x="125.33333333333334" y="-7.666666666666666"/>
      <point x="278.0" y="-7.666666666666666" type="curve" smooth="yes"/>
      <point x="289.6666666666667" y="-7.666666666666666" type="line" smooth="yes"/>
      <point x="455.00000000000006" y="-7.666666666666666"/>
      <point x="568.0" y="83.66666666666667"/>
      <point x="568.0" y="322.6666666666667" type="curve" smooth="yes"/>
      <point x="568.0" y="339.0" type="line" smooth="yes"/>
      <point x="568.0" y="488.6666666666667"/>
      <point x="477.0" y="558.6666666666667"/>
      <point x="414.99999999999994" y="558.6666666666667" type="curve" smooth="yes"/>
      <point x="353.6666666666667" y="558.6666666666667"/>
      <point x="287.0" y="501.33333333333337"/>
      <point x="250.99999999999997" y="423.3333333333333" type="curve"/>
      <point x="218.66666666666666" y="423.3333333333333" type="line"/>
      <point x="218.66666666666666" y="245.33333333333334" type="line"/>
      <point x="248.99999999999997" y="332.3333333333333"/>
      <point x="294.33333333333337" y="370.33333333333337"/>
      <point x="338.66666666666663" y="370.33333333333337" type="curve" smooth="yes"/>
      <point x="345.6666666666667" y="370.33333333333337"/>
      <point x="353.00000000000006" y="369.66666666666663"/>
      <point x="358.3333333333333" y="367.33333333333337" type="curve" smooth="yes"/>
      <point x="362.3333333333333" y="349.6666666666667"/>
      <point x="363.66666666666663" y="328.00000000000006"/>
      <point x="363.66666666666663" y="302.0" type="curve" smooth="yes"/>
      <point x="363.66666666666663" y="294.33333333333337" type="line" smooth="yes"/>
      <point x="363.66666666666663" y="186.66666666666666"/>
      <point x="326.00000000000006" y="154.0"/>
      <point x="279.3333333333333" y="154.0" type="curve" smooth="yes"/>
      <point x="253.66666666666669" y="154.0"/>
      <point x="237.33333333333334" y="156.99999999999997"/>
      <point x="214.66666666666666" y="166.33333333333331" type="curve"/>
    </contour>
  </outline>
</glyph>
<glyph name="dotlessj.italic" format="2">
  <advance width="600.0"/>
  <anchor x="415.33333333333337" y="557.6666666666666" name="top"/>
  <outline>
    <contour>
      <point x="87.66666666666666" y="513.3333333333334" type="curve"/>
      <point x="79.99999999999999" y="488.3333333333333"/>
      <point x="75.66666666666664" y="456.66666666666663"/>
      <point x="75.66666666666666" y="422.6666666666667" type="curve"/>
      <point x="75.33333333333331" y="343.0"/>
      <point x="98.66666666666669" y="311.33333333333337"/>
      <point x="144.0" y="311.33333333333337" type="curve" smooth="yes"/>
      <point x="191.33333333333334" y="311.33333333333337"/>
      <point x="242.6666666666667" y="340.33333333333337"/>
      <point x="322.99999999999994" y="391.3333333333333" type="curve"/>
      <point x="328.3333333333333" y="388.0" type="line"/>
      <point x="328.3333333333333" y="294.3333333333333"/>
      <point x="328.3333333333333" y="192.33333333333331"/>
      <point x="328.3333333333333" y="98.66666666666663" type="curve"/>
      <point x="328.3333333333333" y="16.666666666666647"/>
      <point x="309.99999999999994" y="-8.666666666666686"/>
      <point x="270.3333333333334" y="-8.666666666666686" type="curve"/>
      <point x="256.6666666666667" y="-8.666666666666686"/>
      <point x="242.99999999999997" y="-6.666666666666693"/>
      <point x="229.33333333333337" y="-1.6666666666666954" type="curve"/>
      <point x="221.66666666666669" y="27.33333333333332"/>
      <point x="221.33333333333334" y="105.0"/>
      <point x="270.3333333333333" y="166.66666666666666" type="curve"/>
      <point x="270.3333333333333" y="172.66666666666663" type="line"/>
      <point x="263.33333333333337" y="174.66666666666663"/>
      <point x="256.3333333333333" y="175.66666666666663"/>
      <point x="245.3333333333333" y="175.66666666666663" type="curve" smooth="yes"/>
      <point x="186.33333333333331" y="175.66666666666663"/>
      <point x="136.66666666666666" y="161.33333333333331"/>
      <point x="101.66666666666666" y="126.3333333333333" type="curve" smooth="yes"/>
      <point x="70.33333333333333" y="94.99999999999999"/>
      <point x="49.33333333333336" y="52.00000000000001"/>
      <point x="49.33333333333336" y="-16.0" type="curve"/>
      <point x="49.33333333333336" y="-59.33333333333334"/>
      <point x="65.66666666666669" y="-102.33333333333331"/>
      <point x="99.33333333333334" y="-136.00000000000003" type="curve" smooth="yes"/>
      <point x="139.66666666666666" y="-176.33333333333334"/>
      <point x="207.33333333333334" y="-200.0"/>
      <point x="265.0" y="-200.0" type="curve"/>
      <point x="418.0" y="-200.0"/>
      <point x="523.9999999999999" y="-107.33333333333334"/>
      <point x="523.9999999999999" y="69.66666666666664" type="curve"/>
      <point x="523.9999999999999" y="197.00000000000003"/>
      <point x="524.6666666666666" y="332.6666666666667"/>
      <point x="524.6666666666666" y="460.66666666666663" type="curve" smooth="yes"/>
      <point x="524.6666666666666" y="523.3333333333333"/>
      <point x="468.33333333333337" y="556.6666666666666"/>
      <point x="350.33333333333337" y="556.6666666666666" type="curve" smooth="yes"/>
      <point x="258.00000000000006" y="556.6666666666666"/>
      <point x="149.0" y="539.0"/>
    </contour>
  </outline>
</glyph>
<glyph name="gravecomb.case" format="2">
  <anchor x="0.0" y="712.0" name="_top"/>
  <outline>
    <contour>
      <point x="-25.00000000000001" y="941.3333333333334" type="curve"/>
      <point x="-73.0" y="942.0"/>
      <point x="-128.0" y="939.0"/>
      <point x="-169.33333333333337" y="923.6666666666666" type="curve" smooth="yes"/>
      <point x="-189.00000000000003" y="916.3333333333333"/>
      <point x="-192.66666666666669" y="899.3333333333334"/>
      <point x="-185.33333333333331" y="881.3333333333334" type="curve" smooth="yes"/>
      <point x="-163.66666666666669" y="827.3333333333333"/>
      <point x="-133.33333333333334" y="799.6666666666666"/>
      <point x="-86.66666666666667" y="774.6666666666666" type="curve" smooth="yes"/>
      <point x="-69.33333333333333" y="765.3333333333334"/>
      <point x="-46.0" y="760.6666666666666"/>
      <point x="-13.333333333333329" y="760.6666666666666" type="curve" smooth="yes"/>
      <point x="17.0" y="760.6666666666666"/>
      <point x="57.33333333333333" y="763.6666666666666"/>
      <point x="89.99999999999999" y="775.3333333333334" type="curve"/>
      <point x="28.333333333333332" y="830.3333333333333"/>
      <point x="-4.000000000000007" y="868.3333333333334"/>
    </contour>
  </outline>
</glyph>
<glyph name="k.italic" format="2">
  <advance width="600.0"/>
  <anchor x="304.00000000000006" y="-0.3333333333333335" name="bottom"/>
  <outline>
    <contour>
      <point x="26.333333333333332" y="750.0" type="curve"/>
      <point x="36.33333333333333" y="716.6666666666666"/>
      <point x="41.0" y="672.6666666666666"/>
      <point x="41.0" y="623.6666666666667" type="curve" smooth="yes"/>
      <point x="41.0" y="443.0"/>
      <point x="41.0" y="313.33333333333337"/>
      <point x="41.0" y="155.66666666666666" type="curve" smooth="yes"/>
      <point x="41.0" y="57.33333333333333"/>
      <point x="66.0" y="-5.666666666666666"/>
      <point x="163.66666666666666" y="-5.666666666666666" type="curve" smooth="yes"/>
      <point x="188.66666666666666" y="-5.666666666666666"/>
      <point x="210.99999999999997" y="-4.333333333333333"/>
      <point x="234.33333333333334" y="-4.440892098500626e-16" type="curve"/>
      <point x="234.33333333333334" y="208.33333333333331"/>
      <point x="234.33333333333334" y="412.6666666666667"/>
      <point x="234.33333333333334" y="582.3333333333334" type="curve" smooth="yes"/>
      <point x="234.33333333333334" y="716.0"/>
      <point x="193.0" y="758.6666666666666"/>
      <point x="106.0" y="758.6666666666666" type="curve"/>
      <point x="78.33333333333334" y="758.6666666666666"/>
      <point x="52.00000000000002" y="755.6666666666667"/>
    </contour>
    <contour>
      <point x="395.66666666666674" y="559.0" type="curve" smooth="yes"/>
      <point x="336.66666666666663" y="559.0"/>
      <point x="273.3333333333333" y="488.99999999999994"/>
      <point x="240.99999999999997" y="406.3333333333333" type="curve"/>
      <point x="196.0" y="406.3333333333333" type="line"/>
      <point x="217.33333333333334" y="196.0" type="line"/>
      <point x="255.0" y="338.3333333333333"/>
      <point x="301.6666666666667" y="382.33333333333337"/>
      <point x="338.0" y="382.33333333333337" type="curve" smooth="yes"/>
      <point x="346.66666666666663" y="382.33333333333337"/>
      <point x="354.6666666666667" y="380.33333333333337"/>
      <point x="363.3333333333333" y="375.6666666666667" type="curve" smooth="yes"/>
      <point x="364.33333333333337" y="371.6666666666667"/>
      <point x="365.0" y="366.0"/>
      <point x="365.0" y="361.6666666666667" type="curve" smooth="yes"/>
      <point x="365.0" y="359.0" type="line" smooth="yes"/>
      <point x="365.0" y="290.0"/>
      <point x="329.0" y="241.66666666666669"/>
      <point x="286.99999999999994" y="236.33333333333334" type="curve" smooth="yes"/>
      <point x="282.99999999999994" y="235.66666666666669"/>
      <point x="277.6666666666667" y="235.66666666666666"/>
      <point x="274.3333333333333" y="235.66666666666666" type="curve"/>
      <point x="272.3333333333333" y="215.0"/>
      <point x="272.3333333333333" y="198.33333333333331"/>
      <point x="274.0" y="181.00000000000003" type="curve" smooth="yes"/>
      <point x="277.66666666666663" y="146.0"/>
      <point x="287.66666666666663" y="114.66666666666667"/>
      <point x="304.0" y="88.0" type="curve" smooth="yes"/>
      <point x="318.3333333333333" y="60.33333333333334"/>
      <point x="339.0" y="35.0"/>
      <point x="363.3333333333333" y="17.333333333333336" type="curve" smooth="yes"/>
      <point x="386.33333333333337" y="0.3333333333333339"/>
      <point x="413.99999999999994" y="-10.0"/>
      <point x="443.0" y="-10.0" type="curve" smooth="yes"/>
      <point x="488.6666666666667" y="-10.0"/>
      <point x="523.3333333333333" y="9.666666666666666"/>
      <point x="546.6666666666666" y="42.0" type="curve" smooth="yes"/>
      <point x="567.0" y="70.33333333333333"/>
      <point x="579.6666666666666" y="106.0"/>
      <point x="579.6666666666666" y="143.33333333333331" type="curve" smooth="yes"/>
      <point x="579.6666666666666" y="160.0"/>
      <point x="579.3333333333334" y="175.00000000000003"/>
      <point x="576.6666666666666" y="186.99999999999997" type="curve"/>
      <point x="570.6666666666666" y="186.99999999999997" type="line"/>
      <point x="542.6666666666667" y="170.3333333333333"/>
      <point x="503.99999999999994" y="157.66666666666666"/>
      <point x="478.99999999999994" y="157.66666666666666" type="curve"/>
      <point x="465.6666666666667" y="157.66666666666666"/>
      <point x="454.66666666666663" y="159.66666666666663"/>
      <point x="442.66666666666663" y="164.0" type="curve" smooth="yes"/>
      <point x="436.33333333333337" y="166.66666666666666"/>
      <point x="427.0" y="171.66666666666666"/>
      <point x="420.33333333333337" y="177.0" type="curve"/>
      <point x="421.00000000000006" y="182.33333333333331" type="line"/>
      <point x="436.3333333333333" y="187.66666666666666"/>
      <point x="449.33333333333337" y="193.66666666666666"/>
      <point x="462.00000000000006" y="202.33333333333331" type="curve" smooth="yes"/>
      <point x="521.9999999999999" y="226.33333333333331"/>
      <point x="560.3333333333333" y="294.0"/>
      <point x="560.3333333333333" y="383.0" type="curve" smooth="yes"/>
      <point x="560.3333333333333" y="390.0" type="line" smooth="yes"/>
      <point x="560.3333333333333" y="461.0"/>
      <point x="478.0" y="559.0"/>
    </contour>
  </outline>
</glyph>
<glyph name="macroncomb.case" format="2">
  <anchor x="0.0" y="712.0" name="_top"/>
  <anchor x="0.0" y="909.6666666666667" name="top"/>
  <outline>
    <contour>
      <point x="-212.0" y="926.3333333333334" type="line"/>
      <point x="-212.0" y="920.3333333333334"/>
      <point x="-212.0" y="911.6666666666665"/>
      <point x="-212.0" y="904.6666666666666" type="curve" smooth="yes"/>
      <point x="-212.0" y="826.9999999999999"/>
      <point x="-197.99999999999997" y="784.3333333333333"/>
      <point x="-79.33333333333331" y="784.3333333333333" type="curve" smooth="yes"/>
      <point x="203.0" y="784.3333333333333" type="line"/>
      <point x="206.0" y="798.3333333333333"/>
      <point x="209.99999999999997" y="816.3333333333334"/>
      <point x="209.99999999999997" y="846.6666666666667" type="curve" smooth="yes"/>
      <point x="209.99999999999997" y="905.3333333333334"/>
      <point x="186.33333333333331" y="926.3333333333334"/>
      <point x="130.33333333333331" y="926.3333333333334" type="curve" smooth="yes"/>
    </contour>
  </outline>
</glyph>
<glyph name="nine.ss01" format="2">
  <advance width="600.0"/>
  <outline>
    <contour>
      <point x="291.3333333333333" y="720.0" type="curve" smooth="yes"/>
      <point x="137.33333333333334" y="720.0"/>
      <point x="35.33333333333334" y="616.3333333333334"/>
      <point x="35.33333333333334" y="460.00000000000006" type="curve" smooth="yes"/>
      <point x="35.33333333333334" y="444.0" type="line" smooth="yes"/>
      <point x="35.33333333333334" y="290.3333333333333"/>
      <point x="115.66666666666669" y="229.66666666666666"/>
      <point x="222.33333333333337" y="229.66666666666666" type="curve" smooth="yes"/>
      <point x="298.0" y="229.66666666666666"/>
      <point x="349.6666666666667" y="255.33333333333334"/>
      <point x="371.33333333333337" y="329.0" type="curve"/>
      <point x="334.66666666666663" y="302.0" type="line"/>
      <point x="410.66666666666663" y="302.0" type="line"/>
      <point x="410.66666666666663" y="406.0" type="line"/>
      <point x="373.0" y="387.6666666666667"/>
      <point x="330.6666666666667" y="379.6666666666667"/>
      <point x="292.00000000000006" y="379.6666666666667" type="curve" smooth="yes"/>
      <point x="267.0" y="379.6666666666667"/>
      <point x="249.66666666666663" y="381.66666666666663"/>
      <point x="232.66666666666666" y="387.6666666666667" type="curve" smooth="yes"/>
      <point x="225.99999999999997" y="404.0"/>
      <point x="223.33333333333331" y="423.0"/>
      <point x="223.33333333333331" y="449.0" type="curve" smooth="yes"/>
      <point x="223.33333333333331" y="456.3333333333333" type="line" smooth="yes"/>
      <point x="223.33333333333331" y="508.3333333333334"/>
      <point x="250.0" y="539.6666666666666"/>
      <point x="304.6666666666667" y="539.6666666666666" type="curve" smooth="yes"/>
      <point x="323.3333333333333" y="539.6666666666666"/>
      <point x="339.6666666666667" y="538.0"/>
      <point x="355.0" y="535.6666666666666" type="curve" smooth="yes"/>
      <point x="365.00000000000006" y="508.00000000000006"/>
      <point x="371.33333333333337" y="464.33333333333337"/>
      <point x="371.33333333333337" y="411.0" type="curve" smooth="yes"/>
      <point x="371.33333333333337" y="352.0" type="line" smooth="yes"/>
      <point x="371.33333333333337" y="240.33333333333331"/>
      <point x="310.0" y="141.66666666666666"/>
      <point x="85.0" y="67.66666666666666" type="curve"/>
      <point x="85.0" y="62.99999999999999" type="line"/>
      <point x="136.00000000000003" y="9.0"/>
      <point x="202.99999999999994" y="-16.666666666666664"/>
      <point x="274.66666666666663" y="-16.666666666666664" type="curve" smooth="yes"/>
      <point x="339.6666666666666" y="-16.666666666666664"/>
      <point x="380.99999999999994" y="-1.666666666666666"/>
      <point x="432.3333333333333" y="44.99999999999999" type="curve" smooth="yes"/>
      <point x="521.6666666666666" y="126.66666666666666"/>
      <point x="566.6666666666667" y="244.0"/>
      <point x="566.6666666666667" y="386.66666666666663" type="curve" smooth="yes"/>
      <point x="566.6666666666667" y="393.0" type="line" smooth="yes"/>
      <point x="566.6666666666667" y="605.0"/>
      <point x="460.6666666666667" y="720.0"/>
    </contour>
  </outline>
</glyph>
<glyph name="numbersign_numbersign.code" format="2">
  <advance width="1200.0"/>
  <outline>
    <contour>
      <point x="491.6666666666667" y="400.00000000000006" type="line"/>
      <point x="781.6666666666667" y="400.00000000000006" type="line"/>
      <point x="781.6666666666667" y="570.0" type="line"/>
      <point x="491.6666666666667" y="570.0" type="line"/>
    </contour>
    <contour>
      <point x="441.6666666666667" y="130.0" type="line"/>
      <point x="731.6666666666666" y="130.0" type="line"/>
      <point x="731.6666666666666" y="300.0" type="line"/>
      <point x="441.6666666666667" y="300.0" type="line"/>
    </contour>
    <component base="numbersign" xOffset="202.66666666666669"/>
    <component base="numbersign" xOffset="399.6666666666666"/>
  </outline>
</glyph>
<glyph name="question_question.code" format="2">
  <advance width="1200.0"/>
  <outline>
    <contour>
      <point x="444.66666666666674" y="-1.6666666666666665" type="curve"/>
      <point x="444.66666666666674" y="92.0" type="line" smooth="yes"/>
      <point x="444.66666666666674" y="172.33333333333331"/>
      <point x="387.6666666666667" y="196.0"/>
      <point x="301.33333333333337" y="196.0" type="curve" smooth="yes"/>
      <point x="261.0" y="196.0"/>
      <point x="231.66666666666666" y="192.66666666666669"/>
      <point x="202.0" y="186.00000000000003" type="curve"/>
      <point x="202.0" y="92.33333333333333" type="line" smooth="yes"/>
      <point x="202.0" y="11.999999999999996"/>
      <point x="259.0" y="-11.666666666666668"/>
      <point x="345.3333333333333" y="-11.666666666666668" type="curve" smooth="yes"/>
      <point x="385.66666666666663" y="-11.666666666666668"/>
      <point x="415.0" y="-8.333333333333332"/>
    </contour>
    <contour>
      <point x="350.3333333333333" y="720.0" type="curve" smooth="yes"/>
      <point x="245.66666666666669" y="720.0"/>
      <point x="175.33333333333331" y="702.6666666666667"/>
      <point x="142.33333333333334" y="669.6666666666666" type="curve" smooth="yes"/>
      <point x="123.33333333333334" y="650.6666666666667"/>
      <point x="113.00000000000003" y="616.6666666666666"/>
      <point x="113.00000000000003" y="573.0" type="curve" smooth="yes"/>
      <point x="113.00000000000003" y="541.3333333333333"/>
      <point x="116.00000000000001" y="522.0"/>
      <point x="124.66666666666667" y="496.0" type="curve"/>
      <point x="130.66666666666666" y="496.0" type="line"/>
      <point x="205.66666666666666" y="528.3333333333334"/>
      <point x="264.6666666666667" y="540.6666666666665"/>
      <point x="344.33333333333337" y="540.6666666666665" type="curve" smooth="yes"/>
      <point x="368.00000000000006" y="540.6666666666665"/>
      <point x="412.3333333333333" y="539.0"/>
      <point x="428.0" y="536.0" type="curve"/>
      <point x="428.33333333333337" y="531.3333333333334"/>
      <point x="427.6666666666667" y="526.3333333333333"/>
      <point x="426.3333333333333" y="521.0" type="curve" smooth="yes"/>
      <point x="423.6666666666667" y="503.99999999999994"/>
      <point x="395.33333333333337" y="484.6666666666667"/>
      <point x="354.0" y="463.6666666666667" type="curve" smooth="yes"/>
      <point x="318.0" y="444.99999999999994" type="line" smooth="yes"/>
      <point x="255.00000000000003" y="412.0"/>
      <point x="236.0" y="378.0"/>
      <point x="236.0" y="346.6666666666667" type="curve" smooth="yes"/>
      <point x="236.0" y="343.33333333333326" type="line" smooth="yes"/>
      <point x="236.0" y="299.6666666666667"/>
      <point x="287.3333333333333" y="258.00000000000006"/>
      <point x="391.66666666666663" y="258.00000000000006" type="curve" smooth="yes"/>
      <point x="402.99999999999994" y="258.00000000000006" type="line"/>
      <point x="402.99999999999994" y="266.0" type="line" smooth="yes"/>
      <point x="402.99999999999994" y="287.0"/>
      <point x="409.0" y="302.0"/>
      <point x="445.0" y="321.3333333333333" type="curve" smooth="yes"/>
      <point x="484.0" y="342.0" type="line" smooth="yes"/>
      <point x="579.0" y="391.99999999999994"/>
      <point x="620.6666666666667" y="440.3333333333333"/>
      <point x="620.6666666666667" y="510.00000000000006" type="curve" smooth="yes"/>
      <point x="620.6666666666667" y="513.0000000000001" type="line" smooth="yes"/>
      <point x="620.6666666666667" y="613.6666666666667"/>
      <point x="507.0" y="720.0"/>
    </contour>
    <contour>
      <point x="941.3333333333333" y="-1.6666666666666665" type="curve"/>
      <point x="941.3333333333333" y="92.0" type="line" smooth="yes"/>
      <point x="941.3333333333333" y="172.33333333333331"/>
      <point x="884.3333333333334" y="196.0"/>
      <point x="797.9999999999999" y="196.0" type="curve" smooth="yes"/>
      <point x="757.6666666666667" y="196.0"/>
      <point x="728.3333333333333" y="192.66666666666669"/>
      <point x="698.6666666666666" y="186.00000000000003" type="curve"/>
      <point x="698.6666666666666" y="92.33333333333333" type="line" smooth="yes"/>
      <point x="698.6666666666666" y="11.999999999999996"/>
      <point x="755.6666666666666" y="-11.666666666666668"/>
      <point x="841.9999999999999" y="-11.666666666666668" type="curve" smooth="yes"/>
      <point x="882.3333333333334" y="-11.666666666666668"/>
      <point x="911.6666666666666" y="-8.333333333333332"/>
    </contour>
    <contour>
      <point x="812.6666666666667" y="720.0" type="curve" smooth="yes"/>
      <point x="710.3333333333333" y="720.0"/>
      <point x="654.3333333333333" y="706.6666666666667"/>
      <point x="619.0" y="681.6666666666667" type="curve" smooth="yes"/>
      <point x="599.3333333333334" y="668.6666666666667"/>
      <point x="590.0" y="648.3333333333333"/>
      <point x="589.9999999999999" y="619.3333333333334" type="curve"/>
      <point x="529.6666666666665" y="619.3333333333334" type="line"/>
      <point x="585.6666666666666" y="490.0" type="line"/>
      <point x="656.3333333333333" y="525.0"/>
      <point x="718.0" y="540.6666666666665"/>
      <point x="821.3333333333333" y="540.6666666666665" type="curve" smooth="yes"/>
      <point x="852.6666666666665" y="540.6666666666665"/>
      <point x="872.3333333333334" y="539.3333333333334"/>
      <point x="890.3333333333333" y="536.0" type="curve"/>
      <point x="890.6666666666666" y="531.3333333333334"/>
      <point x="890.0" y="526.3333333333333"/>
      <point x="888.6666666666666" y="521.0" type="curve" smooth="yes"/>
      <point x="886.0" y="504.0"/>
      <point x="876.6666666666666" y="485.3333333333333"/>
      <point x="837.3333333333334" y="462.0" type="curve" smooth="yes"/>
      <point x="812.0" y="445.99999999999994" type="line" smooth="yes"/>
      <point x="745.0000000000001" y="402.3333333333333"/>
      <point x="732.6666666666666" y="378.0"/>
      <point x="732.6666666666666" y="346.6666666666667" type="curve" smooth="yes"/>
      <point x="732.6666666666666" y="343.33333333333326" type="line" smooth="yes"/>
      <point x="732.6666666666666" y="299.6666666666667"/>
      <point x="784.0" y="258.00000000000006"/>
      <point x="888.3333333333333" y="258.00000000000006" type="curve" smooth="yes"/>
      <point x="899.6666666666666" y="258.00000000000006" type="line"/>
      <point x="899.6666666666666" y="265.3333333333333" type="line" smooth="yes"/>
      <point x="899.6666666666666" y="285.6666666666667"/>
      <point x="907.3333333333333" y="300.66666666666663"/>
      <point x="929.3333333333334" y="313.99999999999994" type="curve" smooth="yes"/>
      <point x="966.3333333333334" y="336.6666666666667" type="line" smooth="yes"/>
      <point x="1056.3333333333335" y="392.0"/>
      <point x="1086.3333333333333" y="443.0"/>
      <point x="1086.3333333333333" y="510.00000000000006" type="curve" smooth="yes"/>
      <point x="1086.3333333333333" y="513.0000000000001" type="line" smooth="yes"/>
      <point x="1086.3333333333333" y="606.3333333333334"/>
      <point x="993.3333333333333" y="720.0"/>
    </contour>
  </outline>
</glyph>
<glyph name="v.italic" format="2">
  <advance width="600.0"/>
  <outline>
    <contour>
      <point x="19.333333333333336" y="520.6666666666666" type="curve"/>
      <point x="12.666666666666668" y="490.66666666666663"/>
      <point x="10.66666666666667" y="471.0"/>
      <point x="10.66666666666667" y="431.3333333333333" type="curve" smooth="yes"/>
      <point x="11.000000000000004" y="368.6666666666667"/>
      <point x="23.66666666666667" y="344.3333333333333"/>
      <point x="45.333333333333336" y="344.3333333333333" type="curve" smooth="yes"/>
      <point x="64.0" y="344.3333333333333"/>
      <point x="73.0" y="356.33333333333337"/>
      <point x="83.00000000000003" y="377.0" type="curve"/>
      <point x="89.00000000000001" y="374.3333333333333" type="line"/>
      <point x="89.00000000000001" y="304.6666666666667"/>
      <point x="89.00000000000001" y="226.66666666666669"/>
      <point x="89.00000000000001" y="157.0" type="curve" smooth="yes"/>
      <point x="89.00000000000001" y="69.0"/>
      <point x="199.00000000000003" y="-9.0"/>
      <point x="315.33333333333337" y="-9.0" type="curve" smooth="yes"/>
      <point x="320.33333333333337" y="-9.0" type="line" smooth="yes"/>
      <point x="468.66666666666663" y="-9.0"/>
      <point x="568.3333333333334" y="138.0"/>
      <point x="568.3333333333334" y="336.66666666666663" type="curve" smooth="yes"/>
      <point x="568.3333333333334" y="343.0" type="line" smooth="yes"/>
      <point x="568.3333333333334" y="427.6666666666667"/>
      <point x="553.3333333333334" y="491.66666666666663"/>
      <point x="518.3333333333334" y="527.3333333333333" type="curve" smooth="yes"/>
      <point x="499.33333333333337" y="547.0"/>
      <point x="473.66666666666674" y="557.3333333333334"/>
      <point x="442.0" y="557.3333333333334" type="curve" smooth="yes"/>
      <point x="394.00000000000006" y="557.3333333333334"/>
      <point x="360.99999999999994" y="552.3333333333333"/>
      <point x="325.66666666666663" y="541.0" type="curve"/>
      <point x="325.66666666666663" y="534.9999999999999" type="line"/>
      <point x="359.6666666666667" y="477.99999999999994"/>
      <point x="376.33333333333337" y="425.0"/>
      <point x="376.33333333333337" y="328.0" type="curve" smooth="yes"/>
      <point x="376.33333333333337" y="320.3333333333333" type="line" smooth="yes"/>
      <point x="376.33333333333337" y="200.33333333333331"/>
      <point x="329.33333333333337" y="147.66666666666669"/>
      <point x="277.0" y="139.33333333333334" type="curve"/>
      <point x="271.0" y="139.33333333333331" type="line"/>
      <point x="270.0" y="151.0"/>
      <point x="269.66666666666663" y="163.0"/>
      <point x="269.66666666666663" y="177.0" type="curve" smooth="yes"/>
      <point x="269.66666666666663" y="254.33333333333326"/>
      <point x="269.66666666666663" y="337.33333333333337"/>
      <point x="269.66666666666663" y="434.6666666666667" type="curve" smooth="yes"/>
      <point x="269.66666666666663" y="505.3333333333333"/>
      <point x="224.33333333333331" y="557.0"/>
      <point x="153.66666666666663" y="557.0" type="curve" smooth="yes"/>
      <point x="103.66666666666669" y="557.0"/>
      <point x="58.000000000000014" y="542.0"/>
    </contour>
  </outline>
</glyph>
<glyph name="w.italic" format="2">
  <advance width="600.0"/>
  <anchor x="304.6666666666667" y="551.0" name="top"/>
  <outline>
    <contour>
      <point x="257.3333333333333" y="462.6666666666667" type="curve"/>
      <point x="257.3333333333333" y="376.0"/>
      <point x="257.3333333333333" y="289.3333333333333"/>
      <point x="257.3333333333333" y="202.66666666666669" type="curve" smooth="yes"/>
      <point x="257.3333333333333" y="105.33333333333333"/>
      <point x="323.6666666666666" y="-10.0"/>
      <point x="396.6666666666667" y="-10.0" type="curve"/>
      <point x="401.66666666666663" y="-10.0" type="line"/>
      <point x="512.3333333333333" y="-10.0"/>
      <point x="568.0000000000001" y="127.33333333333334"/>
      <point x="568.0000000000001" y="331.33333333333337" type="curve" smooth="yes"/>
      <point x="568.0000000000001" y="341.00000000000006" type="line" smooth="yes"/>
      <point x="568.0000000000001" y="430.6666666666667"/>
      <point x="551.6666666666666" y="494.66666666666663"/>
      <point x="517.3333333333333" y="528.3333333333334" type="curve" smooth="yes"/>
      <point x="499.00000000000006" y="547.3333333333334"/>
      <point x="474.66666666666663" y="556.9999999999999"/>
      <point x="444.99999999999994" y="556.9999999999999" type="curve" smooth="yes"/>
      <point x="420.00000000000006" y="556.9999999999999"/>
      <point x="391.3333333333333" y="553.3333333333333"/>
      <point x="363.3333333333333" y="546.0" type="curve"/>
      <point x="364.0" y="540.0" type="line"/>
      <point x="398.3333333333333" y="494.6666666666666"/>
      <point x="418.3333333333333" y="426.66666666666663"/>
      <point x="418.3333333333333" y="338.6666666666667" type="curve" smooth="yes"/>
      <point x="418.3333333333333" y="329.66666666666663" type="line" smooth="yes"/>
      <point x="418.3333333333333" y="250.66666666666666"/>
      <point x="408.00000000000006" y="184.33333333333334"/>
      <point x="382.0" y="153.33333333333334" type="curve"/>
      <point x="376.0" y="153.33333333333334" type="line"/>
      <point x="357.3333333333333" y="171.66666666666663"/>
      <point x="345.0000000000001" y="197.33333333333331"/>
      <point x="345.0000000000001" y="233.66666666666666" type="curve" smooth="yes"/>
      <point x="345.0000000000001" y="290.33333333333337"/>
      <point x="345.0000000000001" y="348.0"/>
      <point x="345.0000000000001" y="404.6666666666667" type="curve" smooth="yes"/>
      <point x="345.0000000000001" y="443.6666666666667"/>
      <point x="326.0" y="467.66666666666674"/>
      <point x="284.33333333333337" y="467.66666666666674" type="curve" smooth="yes"/>
      <point x="272.33333333333337" y="467.66666666666674"/>
      <point x="266.33333333333337" y="465.6666666666667"/>
    </contour>
    <contour>
      <point x="18.333333333333343" y="546.0" type="curve"/>
      <point x="31.666666666666675" y="521.6666666666666"/>
      <point x="38.33333333333334" y="492.00000000000006"/>
      <point x="38.33333333333334" y="450.3333333333333" type="curve" smooth="yes"/>
      <point x="38.33333333333334" y="359.00000000000006"/>
      <point x="38.33333333333334" y="267.3333333333333"/>
      <point x="38.33333333333334" y="175.99999999999997" type="curve" smooth="yes"/>
      <point x="38.33333333333334" y="82.66666666666667"/>
      <point x="93.66666666666667" y="-10.0"/>
      <point x="165.99999999999997" y="-10.0" type="curve" smooth="yes"/>
      <point x="171.0" y="-10.0" type="line" smooth="yes"/>
      <point x="218.33333333333337" y="-10.0"/>
      <point x="261.3333333333333" y="31.333333333333336"/>
      <point x="279.3333333333333" y="86.66666666666666" type="curve"/>
      <point x="300.6666666666667" y="86.66666666666666" type="line"/>
      <point x="275.0" y="223.0" type="line"/>
      <point x="258.0" y="190.0"/>
      <point x="234.33333333333337" y="165.33333333333337"/>
      <point x="213.6666666666667" y="152.66666666666669" type="curve" smooth="yes"/>
      <point x="207.66666666666669" y="152.66666666666669" type="line"/>
      <point x="199.0" y="171.66666666666669"/>
      <point x="194.66666666666663" y="195.33333333333337"/>
      <point x="194.66666666666663" y="226.66666666666669" type="curve" smooth="yes"/>
      <point x="194.66666666666663" y="285.6666666666667"/>
      <point x="194.66666666666663" y="344.6666666666667"/>
      <point x="194.66666666666663" y="423.66666666666674" type="curve" smooth="yes"/>
      <point x="194.66666666666663" y="512.0"/>
      <point x="156.33333333333331" y="555.3333333333333"/>
      <point x="76.66666666666667" y="555.3333333333333" type="curve" smooth="yes"/>
      <point x="55.66666666666667" y="555.3333333333333"/>
      <point x="34.00000000000001" y="551.3333333333333"/>
    </contour>
  </outline>
</glyph>
